<?xml version="1.0" encoding="UTF-8" standalone="no"?><svg xmlns="http://www.w3.org/2000/svg" xmlns:xlink="http://www.w3.org/1999/xlink" contentScriptType="text/ecmascript" fill="#002060" width="128.1" zoomAndPan="magnify" contentStyleType="text/css" viewBox="-0.0 0.0 128.1 128.0" height="128" preserveAspectRatio="xMidYMid meet" version="1"><g id="change1_1"><path fill="inherit" d="M66.8109741,46.3955078c0.1582031-0.9053345,0.5240479-2.4551392,1.2642212-3.5400391 c-0.5957031-0.2481079-1.1782227-0.656311-1.5142212-1.3203125c-0.1258545-0.2470703-0.2069702-0.5117798-0.2440796-0.7929688 c-0.0059204,0.4208984,0.0117188,0.9091797,0.0643921,1.4766235c0.0878906,0.9588623-0.4619141,3.2254639-1.24646,4.5018921 L66.8109741,46.3955078z"/></g><g id="change1_2"><path fill="inherit" d="M64.2119141,115C92.2167969,115,115,92.171875,115,64.1142578c0-5.2158813-0.8120117-10.4091797-2.4165039-15.4335938 l-0.1903687-0.5908813c-0.1221313-0.3671265-0.2442017-0.734314-0.3755493-1.0975952 C104.9204102,26.6591797,85.5889282,13,63.9110718,13C35.8378906,13,13,35.6669922,13,63.5302734 c0,9.1592407,2.4984741,18.1337891,7.2250977,25.9520874C29.3032227,105.227478,46.1552734,115,64.2119141,115z M57.5194702,40.4462891c0.2754517-0.6298828,0.9932251-1.656311,2.7852173-1.7891235 c0.5723267-2.055603,2.7910156-8.3847046,8.2842407-8.0809937l0.2479858,0.0145874l0.1983032,0.1524048 c0.0379639,0.0292969,3.8758545,2.9472046,8.6478882,2.9472046c2.1713867,0,4.2211914-0.6034546,6.0946655-1.7938843 c1.3057251-0.8300781,2.9854126-2.7207031,4.6099243-4.5498047c0.727478-0.8184204,1.4155273-1.5899048,2.0811157-2.2861938 l0.4793701-0.5018921l0.5674438,0.4013672c2.1933594,1.5546265,4.2456055,3.2723999,6.0976563,5.1113281 c9.0043945,8.9365234,13.9619141,20.8182983,13.9619141,33.4589844c-0.0048828,2.0263062-0.1503906,4.1268921-0.4312134,6.2451172 l-0.031189,0.2412109l-0.1602173,0.1825562c-0.3880615,0.4434204-0.7523804,0.8321533-0.9887085,1.078125 c0.2363281,2.234375,0.3086548,5.5997314-1.2909546,6.140686l-0.1083984,0.0537109l-0.2139282,0.0029297 c-0.7901001,0-1.0653687-0.7529297-1.6690063-2.4004517c-0.3128662-0.859375-1.2694702-3.4716797-1.8461914-3.5878906 c-0.5667725,0.0215454-2.1126709,2.0751953-3.2749023,4.3496094c-0.0634155,0.8858032-0.3895874,3.5870361-2.0282593,4.1358032 l-0.769043,0.2587891l-2.3041992-7.0712891l-1.8671875-2.4981079c-0.340271,0.0440063-0.8251953,0.0869141-1.3789063,0.0869141 c-1.3427734,0-2.4794922-0.2459717-3.3833008-0.7333984c-0.503418,0.0087891-1.5927734-0.0770874-2.7445679-0.868103 c0.3690796,0.5585938,1.2124023,0.796875,1.8670654,0.8983765l0.2081299,0.0625 c1.3778687,0.6192017,3.0205078,1.5899048,3.0116577,2.6856079c-0.0195923,2.5537109-4.7099609,6.6630859-7.6054688,6.6630859 c-0.4481812,0-0.8491211-0.0947876-1.1953125-0.2841797c-0.7578125-0.4229126-1.253418-1.5957031-2.1386719-3.8076172 c-0.7939453-1.9872437-1.9883423-4.9716797-3.1376953-5.3681641c-0.1162109,0.0419922-0.5337524,0.2559204-1.5595093,1.2919922 c-0.116333,0.1182251-0.2001953,0.1973267-0.2325439,0.2235718c-0.1333008,0.1065063-0.5332031,0.4258423-0.4032593,1.4307251 c0.3916016,3.0233765,4.5985718,7.7539063,6.3452148,8.5233765c0.5151978-0.0038452,1.4111938-0.3602905,2.0639648-0.618103 C85.0687866,80.546875,85.515625,80.375,85.8867188,80.375c0.3339844,0,0.625,0.1444702,0.7992554,0.3955078 c1.2320557,1.7919922-2.5473022,6.0673828-3.1005859,6.5791016c-0.4115601,0.3788452-0.9945679,0.8085938-1.6126709,1.2646484 C80.8671875,89.4287109,79.352478,90.5438843,79,91.3446655c-0.1757813,0.4014282-0.0186157,1.4248047,0.1068726,2.2491455 c0.1880493,1.2265015,0.3658447,2.3856812-0.0390015,3.2313843c-0.2407837,0.4873047-0.7524414,0.6981812-1.2035522,0.8856812 c-0.1202393,0.0479126-0.3033447,0.1231079-0.3575439,0.1611938c-0.6640015,0.5674438-1.4525757,1.6688843-2.2870483,2.8348999 c-1.993103,2.7880859-4.475647,6.2549438-7.9560547,6.2549438c-0.8417969,0-1.7021484-0.2080078-2.5546875-0.6201172 l-0.1444702-0.0703125l-0.1065063-0.1192017c-0.1885376-0.2127686-4.609436-5.265625-2.9473267-10.3496094 c0.6827393-2.0897827-0.6131592-7.2518921-2.133667-8.4960938c-0.5372314-0.4414063-1.5488892-0.6542969-3.0928345-0.6542969 c-1.0606079,0-2.2382813,0.0986938-3.3769531,0.1973267c-1.9795532,0.1679688-3.8252563,0.2782593-4.9365234,0.0233765 c-2.2666016-0.5214233-4.2567749-2.8046265-5.0731812-5.8164063c-0.6016235-2.218689-1.3457031-7.9979858,4.7010498-13.6893921 l0.1055298-0.1005859l0.1337891-0.0557251c0.3309937-0.1386108,8.1289063-3.3944702,11.5438843-3.3944702 c0.9356079,0,1.5650024,0.2353516,1.9239502,0.7177734c0.8231812,1.0986328,0.3710938,1.9287109,0.0604858,2.3475952 c0.1776733,0.109436,0.4589844,0.1651001,1.0097656,0.2559204c0.9072266,0.1474609,2.2167969,0.3602905,3.9424438,1.3789063 c0.0116577-0.0947266,0.0223999-0.1914063,0.0301514-0.2842407l0.0342407-0.3885498l0.3251953-0.2129517 c0.7393188-0.4863892,1.3134766-0.7314453,1.7069702-0.7314453c0.5088501,0.0048828,1.2198486,0.4159546,1.7491455,0.7763672 c0.3270874,0.1494141,2.118103,0.9326172,3.6483765,0.9326172c0.4854126,0,0.8828125-0.0811157,1.1845703-0.2393188 c0.3535156-0.2832031,1.4619141-2.4912109,1.9414063-4.3925171c-0.4257813,0.0693359-0.9291992,0.1220093-1.4657593,0.1220093 c-2.1260376,0-3.6690063-0.8182983-4.5098267-2.3505859l-1.1923828,2.9257813l-0.7684937-1.7246094 c-0.0264282-0.0585938-2.6835938-5.9403687-6.2012329-6.2518921c-0.1640625-0.0166016-0.3183594-0.0224609-0.4649048-0.0224609 c-2.4501953,0-3.7958984,1.8358765-5.0965576,3.6123047c-0.8858032,1.2079468-1.7227173,2.3485718-2.8809204,2.7880859 c-2.8682251,1.0819702-5.0341797,0.5888672-5.9208984-1.2080078c-0.6680298-1.3574219-0.4492188-3.2578125,0.5205078-4.5205078 c0.5742188-0.7490234,1.7255859-0.7705078,2.8399048-0.7919922c0.5213623-0.0098267,1.3963623-0.0264282,1.5952148-0.1776733 c0.1800537-0.3887329,0.2240601-0.7911377,0.0932007-1.1729126c-0.2480469-0.7305298-1.0986328-1.2773438-1.4052124-1.4258423 l-1.2227173-0.5917969l1.1035156-0.7890015c0.7539063-0.5380859,7.4657593-5.256897,10.5741577-5.256897 c0.0118408,0,0.022522,0,0.0332031,0c-0.9296875-1.0741577-1.1454468-1.8876953-1.2909546-2.4354858 c-0.0078125-0.0292969-0.0166016-0.0615234-0.0244141-0.093811c-0.272522,0.2119141-0.6688843,0.4580078-1.2070313,0.4580078 c-0.6767578,0-1.3407593-0.3759155-2.0878906-1.1845093C57.3251953,43.203064,56.9766235,41.6933594,57.5194702,40.4462891z M33.4619141,27.1630859c5.8272095-4.8173828,12.8095703-8.2167969,20.1933594-9.8311157l0.4189453-0.0917969l0.3095703,0.2958984 c0.3104858,0.2979126,0.578125,0.5967407,0.8173828,0.9151001c0.5215454,0.6962891-0.131897,1.2880859-0.7070923,1.8104858 c-1.0913086,0.9893188-2.9169922,2.6446533-2.4295654,5.0928345l0.0205078,0.0975952l-0.0049438,0.0986938 c-0.0478516,0.9697266-0.5487671,2.7001953-2.1269531,3.0390015c-0.1504517,0.0214844-0.3037109,0.0488892-0.4463501,0.0791016 c0.6914063,0.5645142,1.8340454,1.6845703,0.25,4.0634766c-0.8387451,1.2617188-2.1200562,1.8125-3.0546875,2.2149048 c-0.3358765,0.1434937-0.6513062,0.2792969-0.8706055,0.4150391c-0.152771,0.0946655-0.4750977,0.4580078-0.6870117,0.6981812 c-0.2528687,0.2861938-0.4911499,0.5546875-0.7206421,0.7402954c-0.3691406,0.2938843-0.8066406,0.5654297-1.2705078,0.8515015 c-1.5654297,0.9677734-3.3392944,2.0625-3.4077148,4.5206299l-0.0244141,0.1786499 c-0.1674805,0.6513062-0.7456055,1.7548218-1.8500977,1.7548218c-0.6083984,0-1.2017212-0.3339233-1.8153687-1.0194702 l-0.1270142-0.1914063c-0.2147827-0.453125-2.0703125-4.4863281-1.0488281-6.6309204 c0.3129883-0.6572266,0.8623047-1.0966187,1.5869141-1.2714233l0.0175781-0.0058594 c0.1362305-0.4307251,0.3623047-1.8398438-0.1239624-6.0957031c-0.0430298-0.2119141-0.1827393-0.3408203-0.4072876-0.3408203 c-0.163147,0-0.5322266,0.0565796-1.1679077,0.4404297l-0.4111938,0.2480469l-0.4140015-0.2431641 c-0.307251-0.1807251-0.5440063-0.4736328-0.7246094-0.8955078l-0.2374268-0.5546875L33.4619141,27.1630859z M19.7949219,81.4940796 l-0.1035156-0.2567749c-0.5897827-1.4541016-1.1079102-2.9443359-1.5410156-4.4287109l-1.059082-3.6367188l2.4467773,2.8916016 c0.5297852,0.6260376,1.1191406,1.2333984,1.8016968,1.8544922c0.0942993,0.0859375,0.1791992,0.1699219,0.2603149,0.2518921 c0.3187866,0.3155518,0.4144897,0.4111938,1.0103149,0.4111938c0.4544678,0,1.1123047-0.0839844,2.0083008-0.2607422 c0.2885132-0.0566406,0.5805054-0.0840454,0.87146-0.0840454c3.4375,0,8.2154541,3.5137329,10.671936,6.7666016 c0.5249023,0.6962891,2.2860718,1.1260376,3.8399048,1.5049438c2.1347046,0.5214844,4.1513062,1.0136719,4.9580078,2.3526001 c1.1229858,1.8651733-0.2236938,7.3163452-0.5059204,8.3895874l-0.0933228,0.3573608l-0.3314819,0.1621094 c-0.1063843,0.0537109-2.722168,1.4160156-3.6494141,5.703186l-0.2392578,1.1005249l-0.9638062-0.5830078 c-2.7579346-1.6669922-5.3804321-3.6494141-7.7950439-5.8925171l-0.1532593-0.1953735 c-0.6138306-1.0917969-1.140625-2.1063843-1.6113281-3.1035156c-0.4692993-1-1.847168-2.274353-3.1787109-3.5078125 c-1.5370483-1.4208984-2.9892578-2.7636719-3.5859985-4.0741577c-0.3700562-0.8085938-0.1640015-2.0059204,0.0523071-3.272522 c0.1162109-0.6776733,0.3291016-1.9140015,0.1932983-2.281189c-0.1972046-0.0440063-0.3363647,0.0009766-0.6234741,0.1259766 c-0.2764282,0.1201172-0.6210938,0.2695313-1.0786133,0.2695313c-0.4185181,0-0.8637695-0.1387329-1.3623047-0.4257813 L19.7949219,81.4940796z"/></g><g id="change1_3"><path fill="inherit" d="M54.300293,2.7235718c0.1259766,1.0118408,0.987793,1.7529907,1.9819336,1.7529907 c0.0829468,0,0.1659546-0.0048828,0.2504883-0.015686c2.465271-0.3065796,4.9848633-0.4619141,7.4887695-0.4619141 c0.6766968,0,1.3633423,0.0117188,2.0394897,0.0342407c0.022522,0.0009766,0.0450439,0.0009766,0.0674438,0.0009766 c1.074707,0,1.9624023-0.8526001,1.9985962-1.9335938c0.0360718-1.1016235-0.8251953-2.0244141-1.9263306-2.0654297 C65.6010742,0.0126953,64.9990234,0,64.3983765,0c-2.7958984,0-5.5848999,0.1464844-8.3602905,0.4912109 C54.9423828,0.6278687,54.1635742,1.6270142,54.300293,2.7235718z"/></g><g id="change1_4"><path fill="inherit" d="M27.737793,15.7119141c0.4066772,0,0.815918-0.1230469,1.1704102-0.3789063 c2.022522-1.4609375,4.1547852-2.8076172,6.3388672-4.0029297c0.9692383-0.5302734,1.324707-1.7451172,0.7944336-2.7138672 c-0.3632813-0.6650391-1.0493164-1.0400391-1.7562866-1.0400391c-0.3243408,0-0.6548462,0.0791016-0.9595337,0.2451172 c-2.340271,1.2821655-4.6010742,2.7089844-6.7636719,4.2714844c-0.8939819,0.6473999-1.0942383,1.8964844-0.4476929,2.7910156 C26.5062866,15.4248047,27.1176758,15.7119141,27.737793,15.7119141z"/></g><g id="change1_5"><path fill="inherit" d="M41.3018188,8.2919922c0.2445679,0,0.4925537-0.0449219,0.7329102-0.1397095 c2.317749-0.9130249,4.7172852-1.6875,7.1312866-2.3026733c1.0703125-0.272522,1.7182617-1.3613281,1.4458008-2.4316406 c-0.3226929-1.265686-1.4399414-1.5645142-2.5732422-1.359375c-1.5268555,0.2753906-3.0332031,0.7802734-4.496582,1.2841797 c-0.9984741,0.343689-1.9984741,0.6981812-2.9804688,1.0888062c-1.0239258,0.4072876-1.5259399,1.5664063-1.1216431,2.5928345 C39.7495117,7.8114624,40.5039063,8.2919922,41.3018188,8.2919922z"/></g><g id="change1_6"><path fill="inherit" d="M73.5264282,4.7470703c2.4623413,0.390625,4.9232788,0.9424438,7.3129883,1.6386108 c0.1875,0.0546875,0.375,0.0811157,0.5604858,0.0811157c0.8666992,0,1.6655273-0.5684204,1.9193726-1.4423828 c0.3101196-1.0605469-0.2998047-2.1709595-1.3607788-2.4795532c-2.559082-0.7440796-5.1693726-1.3378906-7.8032227-1.7489624 c-0.1064453-0.0166016-0.2128906-0.0244141-0.3173828-0.0244141c-0.9663086,0-1.815918,0.7011719-1.9732056,1.6854858 C71.6918945,3.5479126,72.4351196,4.5731812,73.5264282,4.7470703z"/></g><g id="change1_7"><path fill="inherit" d="M121.6005859,47.0106812c0.2568359,0.8701782,1.0537109,1.4346313,1.918396,1.4346313 c0.1865845,0,0.3770142-0.0264282,0.5664063-0.0820313c1.059082-0.3115234,1.6646118-1.421875,1.354126-2.4804688 c-0.7598267-2.5791016-1.6773071-5.0889282-2.7421875-7.5205078c-0.3301392-0.7480469-1.0625-1.1934204-1.831604-1.1934204 c-0.2676392,0-0.5400391,0.053772-0.8008423,0.1680298c-1.012207,0.4433594-1.4740601,1.6220703-1.0307007,2.6337891 C120.0336914,42.2539063,120.8969727,44.6210938,121.6005859,47.0106812z"/></g><g id="change1_8"><path fill="inherit" d="M125.2401733,51.9950562c-0.1063843,0-0.2147827,0.0088501-0.3231812,0.0264282 c-1.090271,0.1766968-1.8305664,1.2041016-1.6538086,2.2938843c0.3973999,2.453186,0.6455078,4.9639282,0.7363281,7.4619141 c0.0401001,1.0791016,0.9273071,1.9277954,1.9989624,1.9277954c0.0244141,0,0.0489502-0.0009766,0.0733032-0.0020142 c1.1025391-0.039978,1.965332-0.9647827,1.9272461-2.0673828c-0.0976563-2.6660156-0.359436-5.3270874-0.7866211-7.9608765 C127.0532227,52.6933594,126.2045898,51.9950562,125.2401733,51.9950562z"/></g><g id="change1_9"><path fill="inherit" d="M117.3236694,34.2832031c0.3487549,0,0.7022095-0.0908203,1.0240479-0.2822266 c0.9481812-0.5664063,1.258667-1.7940063,0.6922607-2.7431641c-0.9007568-1.5098267-1.8607788-2.984436-2.8827515-4.4160156 c-0.7666016-1.0732422-2.0366211-2.9512329-3.2138062-2.9512329c-0.4297485,0-0.8638306,0.1387329-1.2290039,0.4239502 c-0.8710938,0.6795654-1.0269165,1.9364624-0.3467407,2.8065796c1.5346069,1.9667969,2.9598999,4.0477905,4.2368164,6.1864624 C115.9785156,33.9354858,116.6425781,34.2832031,117.3236694,34.2832031z"/></g><g id="change1_10"><path fill="inherit" d="M106.3955078,21.5078125c0.3897095,0.3896484,0.9003906,0.5839844,1.4125977,0.5839844 c0.5126953,0,1.0253906-0.1962891,1.4165039-0.5878906c0.7802734-0.7822266,0.7782593-2.0488281-0.0048828-2.8291016 c-1.1499023-1.1455078-2.3496094-2.2402344-3.581543-3.296936c-0.9433594-0.8095093-2.3041992-2.4052124-3.6464844-2.4052124 c-0.597229,0-1.1879883,0.2666016-1.5825195,0.7744141c-0.6773071,0.8729858-0.5180664,2.1299438,0.3554077,2.8066406 C102.7338867,18.0800781,104.6289063,19.7479858,106.3955078,21.5078125z"/></g><g id="change1_11"><path fill="inherit" d="M94.5645142,12.3378906c0.3192749,0.1893921,0.6708984,0.2792969,1.0166016,0.2792969 c0.68396,0,1.3500977-0.3496094,1.7235718-0.9805298c0.5625-0.9491577,0.25-2.1737671-0.6967773-2.7372437 c-2.2944336-1.3652344-4.6802368-2.578125-7.1293945-3.640625c-0.2587891-0.1123047-0.5283203-0.164978-0.7930298-0.164978 c-0.7728882,0-1.5092163,0.4500732-1.8363647,1.2041016C86.4091797,7.3125,86.8745117,8.4901733,87.8881836,8.9296875 C90.1724243,9.9208984,92.4180298,11.0673828,94.5645142,12.3378906z"/></g><g id="change1_12"><path fill="inherit" d="M78.3491211,122.3466797c-0.1523438,0-0.3066406,0.0175781-0.4609375,0.0537109 c-2.421875,0.5722656-4.9071655,0.9970703-7.3891602,1.2636719c-1.0991211,0.1172485-1.894043,1.1035156-1.7759399,2.2011108 c0.109436,1.0264282,0.9766235,1.7871094,1.9869385,1.7871094c0.0712891,0,0.1424561-0.0039063,0.2157593-0.0117188 c2.6699219-0.2860718,5.2910156-0.7362671,7.8519897-1.3397827l0.0010376-0.0009766 c0.0087891-0.0018921,0.0175781-0.0039063,0.0274048-0.0059204l0.0018921-0.0009155 c1.0756836-0.2539063,1.7407227-1.3310547,1.4868164-2.406311 C80.0770874,122.9667969,79.2559204,122.3466797,78.3491211,122.3466797z"/></g><g id="change1_13"><path fill="inherit" d="M63.0004883,124c-2.5020142-0.0410156-5.0170898-0.2393188-7.4779663-0.5878906 c-0.0948486-0.0126953-0.1895142-0.0195313-0.2832031-0.0195313c-0.9810181,0-1.8370361,0.7216797-1.9786377,1.7197266 c-0.1551514,1.09375,0.6069946,2.1054688,1.7012329,2.2606812c1.5473633,0.2197876,3.1035156,0.375,4.6625977,0.4893188 C60.7250977,127.9433594,61.8291016,128,62.934082,128c0.0117188,0,0.0223999,0,0.0342407,0 c1.0892944,0,1.980896-0.8740234,1.9994507-1.9667969C64.9863281,124.9287109,64.1055298,124.0185547,63.0004883,124z"/></g><g id="change1_14"><path fill="inherit" d="M48.1821289,121.8983765c-2.4033203-0.656189-4.7885132-1.4716187-7.0913086-2.4237671 c-0.25-0.1035156-0.5088501-0.1523438-0.7637329-0.1523438c-0.7855835,0-1.5307007,0.4658203-1.8490601,1.2363281 c-0.4233398,1.0214844,0.0625,2.1914063,1.0829468,2.6132813c2.4678345,1.0195313,4.9991455,1.8847046,7.574707,2.5878906 c0.1738892,0.046814,0.3492432,0.0693359,0.5209961,0.0693359c0.8799438,0,1.6860962-0.585022,1.9291992-1.4746094 C49.8770142,123.2890625,49.2479858,122.1895142,48.1821289,121.8983765z"/></g><g id="change1_15"><path fill="inherit" d="M92.8267212,116.9287109c-0.3140259,0-0.6324463,0.0741577-0.9291992,0.2294922 c-2.2076416,1.1601563-4.5093384,2.1894531-6.8399048,3.0625c-1.0356445,0.3866577-1.5605469,1.539978-1.1723022,2.5751953 c0.3006592,0.8037109,1.0625,1.2987671,1.8734741,1.2987671c0.5184937,0,1.0073242-0.2412109,1.4829102-0.4266968 c2.2250977-0.8681641,4.4038086-1.8583984,6.5195313-2.9697876c0.9760742-0.5145874,1.3510742-1.7225952,0.8373413-2.6992188 C94.2412109,117.3173828,93.5454102,116.9287109,92.8267212,116.9287109z"/></g><g id="change1_16"><path fill="inherit" d="M123.2133789,82.6776733c-0.218811-0.0770874-0.4423828-0.1131592-0.6635742-0.1131592 c-0.8251953,0-1.5980835,0.5145874-1.887207,1.3377686c-0.8251953,2.3486938-1.809082,4.6690063-2.9238281,6.8984985 c-0.4942017,0.9882813-0.09375,2.1893921,0.8950195,2.6835938c0.2871094,0.1434937,0.5917969,0.2119141,0.8925781,0.2119141 c0.7329102,0,1.4370117-0.4033203,1.7890015-1.1016235c1.1895142-2.3778687,2.2339478-4.8378906,3.125-7.3729858 C124.8018188,84.1815796,124.2539063,83.0429688,123.2133789,82.6776733z"/></g><g id="change1_17"><path fill="inherit" d="M105.5150757,108.0869141c-0.4765015,0-0.9555054,0.1698608-1.3382568,0.5136719 c-1.8531494,1.6699219-3.8291016,3.2391968-5.8731079,4.6630859c-0.906189,0.6318359-1.1289063,1.8789063-0.4971313,2.7850952 c0.3887329,0.5576172,1.0112915,0.8565063,1.6431274,0.8565063c0.3936157,0,0.7915039-0.1162109,1.1391602-0.3583984 c2.1938477-1.5283203,4.2798462-3.1835938,6.2666016-4.9727173c0.8208008-0.7391968,0.887207-2.0038452,0.1473999-2.8261719 C106.6074219,108.3095703,106.0620117,108.0869141,105.5150757,108.0869141z"/></g><g id="change1_18"><path fill="inherit" d="M125.9790039,67.4608765c-0.0596313-0.0057983-0.1182251-0.0078125-0.1757813-0.0078125 c-1.0268555,0-1.9004517,0.7852173-1.9912109,1.8262329c-0.2167969,2.4882813-0.5917969,4.9823608-1.1146851,7.4121094 c-0.2325439,1.0800781,0.4545898,2.1435547,1.5350952,2.3759766c0.1416016,0.031189,0.2832031,0.0458984,0.4228516,0.0458984 c0.921814,0,1.7514038-0.6416016,1.9536133-1.5800781c0.5430298-2.5292969,1.0355835-5.2051392,1.1791992-7.796936 c0.0039063-0.0380859,0.0068359-0.0741577,0.0106812-0.1123047 C127.8925781,68.5253906,127.0786133,67.5565796,125.9790039,67.4608765z"/></g><g id="change1_19"><path fill="inherit" d="M34.3583984,116.1806641c-2.1641235-1.2315063-4.2739258-2.6142578-6.2705078-4.109375 c-0.3598633-0.2686157-0.7807617-0.3994141-1.1978149-0.3994141c-0.6087646,0-1.2103882,0.2772827-1.6029663,0.8016968 c-0.6616211,0.8828125-0.4829102,2.1328125,0.3974609,2.7958984c1.6235352,1.2236938,3.3154297,2.3613892,5.0512085,3.4190063 c0.5093384,0.3104858,1.0230103,0.6141968,1.6436157,0.968689c0.3125,0.1777954,0.6514282,0.2617188,0.9863281,0.2617188 c0.6958008,0,1.371582-0.3623047,1.7406616-1.0097046C35.6538086,117.9491577,35.3184204,116.727478,34.3583984,116.1806641z"/></g><g id="change1_20"><path fill="inherit" d="M116.7476196,96.7304688c-0.3413086-0.2284546-0.7271118-0.3369141-1.1089478-0.3369141 c-0.6459961,0-1.2797852,0.3115234-1.6655884,0.8886108c-1.3833008,2.0712891-2.9129639,4.0782471-4.5454102,5.9639282 c-0.7230835,0.8349609-0.6322632,2.0985718,0.2041016,2.8212891c0.3780518,0.3270874,0.843811,0.4873047,1.3081055,0.4873047 c0.5606079,0,1.1182251-0.234375,1.5142212-0.6914063c1.7437134-2.0175781,3.3662109-4.1416016,4.8461914-6.359375 C117.9135742,98.5849609,117.6665039,97.343811,116.7476196,96.7304688z"/></g><g id="change1_21"><path fill="inherit" d="M2.1962891,69.3505859c1.1030273-0.0585938,1.9501953-1,1.8916016-2.1035156 c-0.0576172-1.0733032-0.0859375-2.1640625-0.0859375-3.2431641c0-1.4189453,0.0498047-2.8516235,0.1484375-4.2598267 c0.0771484-1.102478-0.753418-2.0585938-1.855957-2.1367188c-0.0478516-0.0018921-0.0952148-0.0039063-0.1420898-0.0039063 c-1.0410156,0-1.9194336,0.8067017-1.9936523,1.8604126c-0.1865234,2.6600952-0.2080078,5.3330078-0.0664063,7.9960938 c0.0566406,1.0673218,0.9399414,1.8934937,1.9956055,1.8934937C2.1240234,69.3534546,2.1601563,69.352478,2.1962891,69.3505859z"/></g><g id="change1_22"><path fill="inherit" d="M6.7373047,81.9707031c-0.7446289-2.375-1.3452148-4.8223267-1.7871094-7.2753906 c-0.1738281-0.9678345-1.0166016-1.6465454-1.9663086-1.6465454c-0.1171875,0-0.2363281,0.0108032-0.3564453,0.0322876 c-1.0854492,0.1943359-1.8071289,1.2304077-1.6157227,2.3144531C1.4619141,77.9003906,2.0615234,80.3778687,2.809082,82.8125 c0.0029297,0.0097656,0.0058594,0.0194702,0.0087891,0.0292969c0.0058594,0.0194702,0.0126953,0.0390625,0.0371094,0.1190796 c0.0058594,0.0195923,0.0117188,0.0380859,0.0371094,0.1192017c0.0029297,0.0087891,0.0058594,0.0184937,0.0273438,0.0878906 c0.2685547,0.8554077,1.0571289,1.4023438,1.9077148,1.4023438c0.1982422,0,0.4003906-0.0293579,0.6000977-0.0918579 C6.480957,84.1483765,7.0683594,83.0253906,6.7373047,81.9707031z"/></g><g id="change1_23"><path fill="inherit" d="M8.0498047,39.2578125c0.746582,0,1.4624023-0.4199219,1.8066406-1.1367188 c1.0742798-2.2451172,2.3041382-4.4462891,3.6542358-6.5449219c0.5977173-0.9287109,0.3291016-2.1660156-0.5996094-2.7636719 c-0.3353882-0.2158203-0.7103882-0.3184204-1.0804443-0.3184204c-0.6577148,0-1.3023071,0.3242798-1.6841431,0.9180298 c-1.4448242,2.2421875-2.7587891,4.5771484-3.902832,6.9873047C5.7719727,37.3944702,6.1928711,38.5849609,7.1875,39.0604858 C7.4658203,39.1942749,7.7597656,39.2578125,8.0498047,39.2578125z"/></g><g id="change1_24"><path fill="inherit" d="M5.7827148,42.5390625c-0.2099609-0.069397-0.421875-0.1026001-0.6313477-0.1026001 c-0.8369141,0-1.6166992,0.5283203-1.8969727,1.3643188c-0.8359375,2.5166016-1.5200195,5.0996094-2.0415039,7.743103 C1.0019531,52.625,1.7070313,53.6737671,2.7895508,53.8876953c0.1298828,0.0263672,0.2607422,0.0380859,0.3886719,0.0380859 c0.9370117,0,1.7729492-0.6602173,1.9604492-1.6123047c0.4829102-2.4453125,1.1264648-4.8828125,1.9111328-7.2451172 C7.3984375,44.0194702,6.8310547,42.8876953,5.7827148,42.5390625z"/></g><g id="change1_25"><path fill="inherit" d="M17.3081055,101.6835938c-0.3959961-0.4893188-0.9741211-0.7432251-1.5585938-0.7432251 c-0.4414063,0-0.8857422,0.1455078-1.2548828,0.444397c-0.8598022,0.6943359-0.9936523,1.9541016-0.2993164,2.8125 c1.6776733,2.0761108,3.4818726,4.0449219,5.4024048,5.8965454c0.3876953,0.3739624,0.8880615,0.5594482,1.3880615,0.5594482 c0.5245361,0,1.0484009-0.2050781,1.44104-0.6123047c0.7666016-0.7948608,0.743103-2.0614624-0.0518188-2.828064 C20.5786133,105.4823608,18.8740234,103.6220703,17.3081055,101.6835938z"/></g><g id="change1_26"><path fill="inherit" d="M9.4243164,88.9657593c-0.3369141-0.734375-1.0615234-1.1678467-1.8208008-1.1678467 c-0.2783203,0-0.5615234,0.0584717-0.8310547,0.1825562c-1.003418,0.4590454-1.4448242,1.6425171-0.9887695,2.6465454 c0.6943359,1.5145874,3.2539063,6.1991577,3.7822266,7.0506592c0.3793945,0.6104126,1.0326538,0.9462891,1.703064,0.9462891 c0.359436,0,0.7236938-0.0966797,1.0518188-0.2998047c0.9390259-0.5819702,1.2280273-1.8143921,0.6459961-2.7548828 C11.652771,93.4501953,10.4608765,91.2284546,9.4243164,88.9657593z"/></g><g id="change1_27"><path fill="inherit" d="M14.8109741,16.8017578l-0.7963867,8.0009155c-0.0634155,0.6348267,0.1796875,1.2608032,0.6547852,1.6865845 c0.3702393,0.3330078,0.8477173,0.5117188,1.3365479,0.5117188c0.1366577,0,0.274353-0.0136719,0.4110718-0.0429688 l8.0023804-1.6797485c1.081604-0.2265015,1.7730103-1.2870483,1.5464478-2.368103 c-0.2275391-1.0800781-1.2866211-1.7724609-2.3685913-1.5458984l-2.2373047,0.46875 c0.5805054-0.5859375,1.1537476-1.1787109,1.7533569-1.7383423c0.8091431-0.7528687,0.8540039-2.0194702,0.100647-2.8270874 c-0.3946533-0.4229126-0.9287109-0.6367188-1.4644165-0.6367188c-0.4882813,0-0.9766235,0.1766968-1.3623047,0.5350952 c-0.6088867,0.5674438-1.1802368,1.171936-1.7666016,1.7617188l0.1724243-1.7294922 C18.9022827,16.0985718,18.0991211,15.1190796,17,15.0097656C15.8983765,14.8955078,14.9204102,15.7020874,14.8109741,16.8017578z"/></g></svg>