<?xml version="1.0" encoding="UTF-8" standalone="no"?><svg xmlns="http://www.w3.org/2000/svg" xmlns:xlink="http://www.w3.org/1999/xlink" contentScriptType="text/ecmascript" fill="#000000" width="1616.6" zoomAndPan="magnify" contentStyleType="text/css" viewBox="0.0 -1.3 1616.6 1171.9" height="1171.9" preserveAspectRatio="xMidYMid meet" version="1"><g><g><g id="change1_1"><path fill="#0165b6" d="M1616.61,1170.56H0V0.03c75.55-1.37,153.32,39.85,204.22,98.62c67.37,77.8,98.43,179.7,127.74,278.35 c32.33,108.78,64.65,217.56,96.98,326.34c22.85,76.91,58.3,166.17,136.62,183.57c65.63,14.57,129.19-30.45,175.78-78.91 c46.59-48.46,90.31-105.54,154.28-126.19c62.86-20.31,133.2,0.27,187.36,38.09c54.16,37.83,95.24,91.14,135.42,143.58 c24.15,31.51,49.35,73.22,30.25,108.02c-10.97,19.97-34.43,31.6-42.56,52.88c-11.66,30.51,15.96,64.07,47.36,73.06 c31.4,9,64.78,1.59,97.28-1.68C1444.51,1086.32,1541.35,1113.98,1616.61,1170.56z"/></g><g id="change2_1"><path fill="#002361" d="M1607.94,974.52c-5.15-60.61-34.77-119.16-80.69-159.09c-49.3-42.87-114.65-59.09-178.59-46.54 c-26.96,5.29-53.05,15.34-76.7,29.37c-11.53-11.57-25.45-21.03-39-28.09c-30.67-15.99-66.62-24.07-100.73-28.28 c-73.28-9.04-149.24,3.82-215.21,37.08c-69.3,34.92-119.23,94.52-178.56,142.78c-29.45,23.94-61.61,44.08-97.66,56.43 c-34.05,11.67-70.17,16.88-106.13,15.93c-71.29-1.9-142.27-28.3-194.62-77.3c-53.31-49.9-86.48-120.48-92.29-193.17 c-5.71-71.43,16.74-142.08,61.63-197.83c23.73-29.48,54.24-55.7,88.51-74.41c21.66,28.44,43.49,58.81,71.76,80.88 c24.51,19.14,55.56,30.03,86.42,21.28c27.92-7.92,46.77-32.36,44.08-61.74c-2.71-29.67-23.43-54.97-50.51-66.22 c-33.75-14.01-72.62-8.95-106.55,1.72c-15.13,4.76-29.78,10.86-43.81,18.15c-9.21-12.2-18.28-24.5-27.38-36.68 c-46.52-62.28-92.16-125.71-146.54-181.5c-50.9-52.2-109.08-96.09-177.78-121.83C32.13,99.67,16.21,94.75,0,90.87v5.17 c60.76,15.03,118.92,45.36,165.07,82.73c61.77,50.01,112.09,112.15,159.76,175.29c23.47,31.1,46.43,62.59,70.14,93.51 c0.03,0.04,0.07,0.09,0.1,0.13c-42.27,22.88-78.68,56.56-105.37,96.55c-37.8,56.63-53.98,124.81-45.62,192.38 c8.35,67.43,39.52,132.16,88.23,179.7c48.21,47.04,112.8,74.73,179.52,81.34c68.2,6.77,137.67-8.9,195.13-46.55 c64.75-42.43,113.06-105.13,177.7-147.67c64.09-42.19,141.73-62.38,218.22-59.01c37.95,1.67,75.76,9.16,111.26,22.75 c18.44,7.05,38.32,18.5,53.62,33.63c-4.77,2.96-9.43,6.08-13.97,9.36c-20.09,14.51-47.71,34.41-40.07,62.83 c5.47,20.36,26.91,35.67,48.05,30.88c27.42-6.21,41.23-38.87,34.96-64.35c-3.46-14.07-11.24-26.69-21.24-37.59 c53.98-31.62,120.9-42.24,180.71-22.11c61.59,20.72,109.58,72.68,132.41,132.7c11.37,29.89,16.77,62.1,14.64,94.06 c-2.54,38.34-17.77,72.98-35.12,106.75c-9.67,18.83-19.9,37.68-28.33,57.21h5.44c15.08-34.53,35.43-66.57,48.99-101.81 C1605.82,1038.63,1610.67,1006.73,1607.94,974.52z M492.76,422.5c39.18-2.68,80.88,10.54,97.18,49.26 c6.92,16.44,7.94,35.56-0.96,51.48c-8.59,15.36-24.9,24.24-41.8,27.22c-40.51,7.15-74.91-18.59-100.62-46.96 c-15.68-17.3-30.28-35.67-44.47-54.34C430.43,434.32,461.21,424.66,492.76,422.5z M1291.91,840.87 c7.81,31.78-23.61,75.32-57.25,52.95c-11.01-7.33-18.49-20.55-17.16-33.96c1.69-16.97,17.69-28.82,30.04-38.7 c7.55-6.04,15.49-11.61,23.76-16.69C1281.08,815.04,1288.55,827.24,1291.91,840.87z"/></g></g></g></svg>