<?xml version="1.0" encoding="UTF-8"?> <svg xmlns="http://www.w3.org/2000/svg" viewBox="0 0 339.91 104.59"><defs><style>.cls-1{fill:#6bbf00;}.cls-2{fill:#d0d8dd;}.cls-3{fill:#fff;}.cls-4{fill:#31718c;}</style></defs><g id="Layer_2" data-name="Layer 2"><g id="Layer_1-2" data-name="Layer 1"><path class="cls-1" d="M61.47,18.44c0-.08.18,0,.27,0,.25-.05.74-.19.74-.19-.17.13-.78.94-1,.2"></path><path class="cls-1" d="M50.72,14.28a3.41,3.41,0,0,1,2.56-.55,8.79,8.79,0,0,0-1,.39c-.07,0,.3,0,.23,0l-.19.07h.06a0,0,0,0,1,0,0l.22-.07c.17,0,.35.11.52.05s.27-.38.48-.4.54.1.51.3-.57.11-.61.34.54.08.54.08c-.16.23-.19.68-.47.71a7.54,7.54,0,0,1-2.13-.39c-.81-.14.9.42-1.15.39-.15,0,0-.33-.17-.41.12,0,.24-.07.33-.09a1.74,1.74,0,0,0,.47-.24c.08,0,.13-.14.22-.16h.05l-.14,0c-.11,0-.44,0-.35,0"></path><path class="cls-1" d="M50.14,14.86h0c-.1,0-.18,0-.22,0a.28.28,0,0,1,.22,0"></path><path class="cls-1" d="M49.9,14.79l0,.05c-.41.11-.89.93-1.05.34,0-.07.15,0,.22,0s.3-.11.37-.23-.06-.4,0-.54.25,0,.37,0,.56-.25.58-.05-.56.19-.56.43"></path><path class="cls-1" d="M70.58,15.16c-.42-.15-.93-.14-1.25-.44-.17-.17.49-.17.72-.09s.53.53.53.53"></path><path class="cls-1" d="M51.83,13.17l.63.07-.63-.07"></path><path class="cls-1" d="M52.52,12.72s.06.12.06.12-.22.05-.27,0,.13-.1.21-.09"></path><path class="cls-1" d="M60.83,19.35a4,4,0,0,0-.44-.55c.16-.07.33-.25.49-.19s.27.59.5.52-.21-.44-.13-.64.25.07.32.17-.1.16,0,.2c.22.15.59.07.74.29s-.31.09-.4.21.08.13.06.19a2.36,2.36,0,0,1-.37.93c-.05.07-.2-.09-.2-.18s.26,0,.2-.08-1,0-.64-.59c.12-.2.84-.1.65-.24s-.5.17-.76.15c-.07,0,0-.13,0-.19"></path><path class="cls-1" d="M52.58,12.32c-.22-.05-.57.06-.67-.15s.35-.2.53-.15.14.3.14.3"></path><path class="cls-1" d="M49.69,13.42c.13-.14.37,0,.55,0s0,.07,0,.1-.19.24-.32.22-.34-.24-.24-.34"></path><path class="cls-1" d="M49.53,14.13c.19-.08.34-.41.54-.34s-.38.4-.38.4a2.39,2.39,0,0,1-.43.27c-.21.08-.51,0-.67.14s0,.52-.15.75-.25.24-.29.14c-.51-1.54.51-1,1.38-1.36"></path><path class="cls-1" d="M50,12.72c-.09-.08.25.11.37.08.3-.1.53-.42.84-.47.13,0-.11.36-.11.36-.5.26-.56.47-1.1,0"></path><path class="cls-1" d="M69.25,12.06a6.13,6.13,0,0,1,.62.25.91.91,0,0,1-.34.17c-.23,0-.86-.35-.85-.51s.38,0,.57.09"></path><path class="cls-1" d="M70.38,19.69c.06.15.36.12.38.28a1,1,0,0,1-.15.63,1.62,1.62,0,0,1,.41-.07s-.08.07-.07.11a1.54,1.54,0,0,0,.62.67,4.51,4.51,0,0,0,.63.29c.18.06.41,0,.56.11.36.25-.34.23-.43.22-.48-.06-1.43-.21-1.43-.21-.28-.65-.63-.94-.39-1.08h-.05c-.3-.11-.34-.9-.34-.9s-.19-.25-.29-.36-.17-.1-.19-.19c-.16-.62.39-.79.83-1.05,0,0,0,0,0,0,0,.27-.08.54-.12.82,0,0,0,.07,0,.11s.35.38.29.47-.25.05-.22.13"></path><path class="cls-1" d="M48.49,13.41l.27-.22-.27.22"></path><path class="cls-1" d="M47.1,14.32a1.21,1.21,0,0,1,.82-.1,4.49,4.49,0,0,1-1.16.47c-.16,0,.19-.3.34-.37"></path><path class="cls-1" d="M73.22,13.83a4.17,4.17,0,0,1-.78-.25s0-.18.06-.16a4.27,4.27,0,0,1,.72.41"></path><path class="cls-1" d="M51.41,12.07c.09.17-.56.12-.56.12-.32.11-.64.39-1,.33-.17,0-.17-.4,0-.51s1.38-.33,1.57.06"></path><path class="cls-1" d="M48.3,13.78a4.66,4.66,0,0,1-.81.23c-.12,0-.41,0-.34-.11.3-.44.8-.21,1.15-.12"></path><path class="cls-1" d="M56.74,17.75c.13,0,.53-.08.4-.14a3.14,3.14,0,0,0-1.1-.19c-.08,0-.15.06-.23.09s-.25.08-.19,0c.34-.18,1.28-.32.34-.79-.16-.08-.42.13-.52,0s.25-.17.4-.16.42.2.64.23a.61.61,0,0,0,.5-.08.24.24,0,0,0,0-.34l-.09,0c.06,0,.13,0,.11,0-.31-.6-.73-.26-1.3-.21-.17,0-.26-.3-.44-.28s-.41.33-.67.37c-.94.15,0-.55-.45-.75-.19-.09-.33.31-.53.3s-.24-.31-.42-.35c-1.39-.3-.62,0-1.36.3s-.19-.34-1-.32a.88.88,0,0,0-.81.5c.07.07.23,0,.28.13s-.1.12-.16.1-.29-.31-.49-.32-.33.2-.49.3-.27.09-.24.18c.15.58.71.12.27.77s-.22.15-.65.49c-.17.14-.28.34-.46.46a3.17,3.17,0,0,1-.49.24,2.26,2.26,0,0,0-.42.26s.06.11,0,.13c-.35.17-.83.12-1.1.39s.65-.24.72,0c.17.63-.6.55-.85.74a1.17,1.17,0,0,0-.33.37,0,0,0,0,0,0,0c-.16,0-.32-.09-.44,0s.3.19.22.28a2.46,2.46,0,0,1-1.11.57c-.18,0-.38-.34-.51-.21s.26.49.1.63-.13-.38-.29-.47,0,.19-.12.23-.51-.12-.56,0,.58.44.39.54-.29-.48-.52-.47-.3.35-.47.5l-.09,0,.67-.06c.12,0,.44.12.32.14s-.16-.11-.26-.12a4.48,4.48,0,0,0-.64.08c-.09,0-.25-.06-.26,0s.3.42.18.58-.37-.16-.56-.11-.25.25-.37.37a4.33,4.33,0,0,0-.55.59c0,.05.15,0,.16,0s-.91.86-.92.88,0,.2,0,.3,0,.06,0,.08-.29.19-.4.32.13.08.09.08-.28-.21-.24,0c0,.06.1.1.1.16a.54.54,0,0,1-.13.32c0,.06-.26-.05-.22,0a1,1,0,0,0,.47.34c.11,0,.3-.13.35,0,.14.34-.63.6-.7.65s.24.47.42.4c.34-.12.47-.57.76-.79,0,0,0,.17.1.14s.15-.25.27-.33,0,.1.06.08a3.21,3.21,0,0,0,.48-.34,6.61,6.61,0,0,1,1.12-.78c.08,0,0,.31.09.24s0-.38.15-.49.22.19.31.13.15-.46.35-.56.43,0,.64,0c.06,0,.07-.15.13-.13s.08.24.17.22.37-.34.6-.43c0,0,0,.1.07.15s.12.2.18.3a2.48,2.48,0,0,0,.61-.07,5.4,5.4,0,0,0,.65-.4s.07,0,.1,0,.11-.14.19-.16.25.08.34,0,.18-.51.38-.5c1.63.11.64.9,1.77.55.25-.08.46-.27.71-.34,0,0,.08.1.14.09s.72,0,.57-.16c-.39-.35-1-.28-1.44-.62-.17-.14.48.08.68,0s-.08-.3,0-.36a.71.71,0,0,1,.53,0c0,.42.1.85.35.74s.14-.29.23-.23-.2.15-.18.26.17.1.21,0,.83-1.05.3-1.4c-.11-.07-.25.14-.37.1s.13-.09.15-.16c.09-.24,0-.59.2-.74s.41.16.63.17.17-.19.23-.13-.07,1.07.55.44c.18-.18,0-.6.22-.74s.46.41.58.24-.47-.39-.35-.58.52.19.7,0,.06-.47.09-.71c0-.07,0-.23,0-.22.23,0,.41.2.64.25.06,0,.17,0,.15-.11s-.37-.36-.3-.56A8.63,8.63,0,0,1,56,18l.79-.26m-.47-1.58a2.32,2.32,0,0,1,.46.18,4.93,4.93,0,0,1-.86-.1c-.12-.05.27-.1.4-.08"></path><path class="cls-1" d="M42.08,21.84h.09c-.06,0-.13,0-.09,0"></path><path class="cls-1" d="M45.94,19.45s0,0,0,0c-.2,0-.38.05,0,0"></path><path class="cls-1" d="M45.19,14.1c-.1-.12.25-.19.39-.26a5.17,5.17,0,0,0,.59-.23c.21-.16.3-.44.52-.59s.29,0,.43-.09.44-.22.67-.3.6-.25.49-.12-.63.26-.84.52.42-.16.62-.26a4.51,4.51,0,0,1,.57-.31,5.79,5.79,0,0,1,.6-.07c.09,0,.23-.2.25-.11s-.23.33-.23.33a4.51,4.51,0,0,1-.91.51c-.22.07-.46.08-.68.14,0,0,.07,0,.11,0,.3,0,.6-.1.9-.15,0,0,.17-.05.13,0-.77.43-1.7.34-2.48.74-.19.09-.86.59-1.13.25"></path><path class="cls-1" d="M44.45,20.2a5.48,5.48,0,0,1,.67-.4,6.92,6.92,0,0,1-.74.57c-.05,0,0-.14.07-.17"></path><path class="cls-1" d="M43.88,16.64a.61.61,0,0,1-.16.12c-.06,0,.11-.16.16-.12"></path><path class="cls-1" d="M45.27,14.51l-.76.33c-.11.05-.41.25-.34.16a1.67,1.67,0,0,1,.61-.51c.15-.07.32,0,.49,0"></path><path class="cls-1" d="M61.9,25.65c.05,0,0,.13-.08.17s-.09,0-.09,0c-.33,0,.08-.23.17-.14"></path><path class="cls-1" d="M61.31,26.22s.09-.08.14-.09-.14.09-.14.09"></path><path class="cls-1" d="M39.61,19.43c.15-.19.26-.85.43-1s.32.11.3.23-.49.14-.38.24.59.15.89.21.37.2.49.09,0-.46.1-.63.27,0,.39-.07a2.26,2.26,0,0,0,.73-.44c.18-.17.23-.46.39-.65s1.61-.55,1.57-.86-.59.22-.68,0,.4-.23.53-.4a3,3,0,0,0,.23-.59c.13-.24.49-.26.75-.36a1.86,1.86,0,0,1,1.73,0c.18.09-.38-.06-.58,0a6.19,6.19,0,0,0-1.41.35c-.06,0,0,.18,0,.17.53-.09.76-.51,1.34-.43.17,0,.45.11.45.29s-.29.15-.45.2c-.32.1-.76,0-1,.25s.52,0,.59.23-.24.27-.4.36-.1-.09-.15-.08a2.33,2.33,0,0,0-.7.36c-.09.06-.24.19-.16.26s.59-.09.47,0c-.36.26-.89.23-1.21.53-.18.15.68-.3.7-.07.08.91-.84.17-1.06.42s.08.41-.07.5-.29-.25-.43-.19-.39.51-.39.51-.34.15-.37.31.37-.19.32-.08-.4.39-.56.62-.19.47-.35.67c0,0,0-.15-.06-.14-.29.08-1,.55-1.38.53-.09,0,.14-.11.21-.17s.1-.17.19-.22.54-.13.65-.35,0-.58-.2-.62-.35.32-.54.47a4.23,4.23,0,0,0-.54.42c-.38.42-.72,1-1.28,1.15a2.38,2.38,0,0,1-.26.05c-.18.05-.44.31-.54.15s.1-.44.21-.64.25-.21.34-.34.1-.33.19-.47c.2-.33.65-.51.88-.81"></path><path class="cls-1" d="M48.58,26.43c.06,0-.13,0-.19-.06s-.39-.15-.58-.25c.06,0,.14.05.17,0,.25-.13.37-.51.66-.53s.32.27.32.46-.27.39-.33.61.14-.22.25-.27,0,.11.09.11.09-.09.15-.1.2.07.29,0,.07-.27.15-.23.1.38.25.42c.48.11,1.47-.61,1.41.52,0,.15-.27.16-.38.26s-.19.35-.35.44-.22-.1-.32-.08a13,13,0,0,1-1.34.42,1.09,1.09,0,0,1-.65-.26,1.07,1.07,0,0,1-.26-.36c-1.05-1,.12-.93.66-1.16"></path><path class="cls-1" d="M47.75,26.1l.06,0-.06,0"></path><path class="cls-1" d="M39.22,19s-.09.14-.14.2l.14-.2"></path><path class="cls-1" d="M51.19,33.94a.42.42,0,0,1,.14-.08s-.06.12-.11.15,0,0,0-.07"></path><path class="cls-1" d="M51.4,36a1.43,1.43,0,0,1,.23-.44s.1,0,.09,0-.37.61-.32.43"></path><path class="cls-1" d="M51.35,39.87c.22-.07.48.15.7.08s.58-.27.46-.44-.37.28-.58.26-.35-.24-.54-.35-.59-.08-.53-.28.48-.13.7-.24c.71-.39-.28-.15-.14-.59.21-.71.84-.17,1.19-.27.09,0-.13-.14-.16-.22-.1-.38-.13-.78-.21-1.16-.05-.23-.15-.45-.18-.68s.13-.51,0-.71-.24.08-.32.17-.09.1-.13.16l0,0c0-.29.48-.41.52-.7,0-.13-.34.26-.37.14s.2-.34.28-.51a.68.68,0,0,0,.07-.28c0-.13-.17-.29-.08-.4s.28.15.36.06a1.6,1.6,0,0,0,.23-.66c.28.12.69.09.83.36s-1.13.47-.74.66,1-.14,1.23.2c.57.81-1.36.66-1.27,1.13,0,.12.23.05.33.11a2.53,2.53,0,0,1,.64.42s0,.12,0,.18c.12.31.3.59.42.9a4.77,4.77,0,0,1,.17.65c.07.25,0,.55.19.76s.77-.06.63.51c-.24,1-.42.21-1,.87-.14.18-.09.46-.2.66,0,0-.08,0-.13-.06a2.4,2.4,0,0,0-.85-.23c-.24,0-.41.29-.65.3s-.37-.28-.57-.24-.06.34-.2.4-.19-.12-.29-.19c-.36-.24-.82-.42.17-.75"></path><path class="cls-1" d="M48.13,38.3a2,2,0,0,0,.41,0c.22,0,.66,0,.65-.26s-.7.18-.67,0,.69-.17.73-.45c.27-1.89-1.73,1.31-.38-.92.27-.43.49.12.85.09,0,0,1-.88,1.32-.72a.5.5,0,0,1,.31.44c0,.25-.48.61-.48.61s-.1.08-.11.13.11.23.08.34a4,4,0,0,1-.49,1.21c-.06.09-.2,0-.29,0-.65-.13-1.3-.24-1.93-.4"></path><path class="cls-1" d="M51.62,37.84l.09,0-.09,0"></path><path class="cls-1" d="M30.08,32.5a2.25,2.25,0,0,1,0-.22c.09-.11.17-.26.17-.17a.78.78,0,0,1-.12.39"></path><path class="cls-1" d="M29.93,32.76l.15-.26v0c0,.15.32-.23.46-.15s-.25.12-.35.2,0,.11-.08.16a1.85,1.85,0,0,1-.4.52s-.1-.1-.08-.16.22-.21.3-.34"></path><path class="cls-1" d="M28.92,31a2,2,0,0,1-.44.71c-.1.07-.3-.16-.24-.26s.45-.3.68-.45"></path><path class="cls-1" d="M63.39,47.06l-.34-.33.34.33"></path><path class="cls-1" d="M59.22,48.74l0,0a3.45,3.45,0,0,1,.14-.34s0,.24-.1.31"></path><path class="cls-1" d="M58.67,49c.09-.17.35-.15.51-.25a1.92,1.92,0,0,1-.46.87c-.15.14-.15-.43,0-.62"></path><path class="cls-1" d="M58.53,52.25c.23-.69.62-2.11.62-2.11a3.23,3.23,0,0,1,.42.71c0,.11-.13.18-.16.28s.08.06.08.18c0,.62,0,1-.69,1.15-.13,0-.26-.08-.36-.16s.08,0,.09,0"></path><path class="cls-1" d="M64,53a2.76,2.76,0,0,0-.38.77c0,.19.53.62,0,.81s-.4-.22-.66-.37-.27,0-.39-.07a4.87,4.87,0,0,1-.47-.32c-.19-.11-.48-.1-.58-.29s.11-.3.24-.38c.46-.29.43.09.8.19.06,0,.12-.07.19-.09l.68-.16L64,53"></path><path class="cls-1" d="M77.2,54c0-.06-.08-.19,0-.24s.45-.08.65-.18a2.24,2.24,0,0,0,.45-.39,2.67,2.67,0,0,1-.19.75c0,.09-.22,0-.3.09s-.55,1.16-1,.16c-.06-.13.31-.08.41-.19"></path><path class="cls-1" d="M92.63,54.44a.76.76,0,0,1,.24-.19c-.12.23-.17.52-.38.68s.06-.34.14-.49"></path><path class="cls-1" d="M100.94,43.47v0s0,0,0,0"></path><path class="cls-1" d="M86,67.2a.77.77,0,0,1,0,.1.77.77,0,0,0,0-.1"></path><path class="cls-1" d="M101.42,56.26c0,.11-.08.71-.11.91s0,.71-.1.56,0-.43,0-.65c0-.38.09-.76.12-1.14a1.13,1.13,0,0,1,.06.32"></path><path class="cls-1" d="M101.39,55.59l0,.35a.75.75,0,0,1,0-.2c0-.06.06-.2.06-.15"></path><path class="cls-1" d="M21.51,65.08a1.17,1.17,0,0,0,0-.16l0,.16"></path><path class="cls-1" d="M88.08,81.13c.34.5-.49.94-.68,1.14s-.14.23-.23.33a18.36,18.36,0,0,1-3.33,2.81l-1.48.85c.06,0,1.1-.79,1.16-.85s.15-.31.26-.44a6,6,0,0,1,.64-.6c.36-.28.85-.51,1.19-.79.16-.12.29-.28.45-.41l-.08.1a9.06,9.06,0,0,0,.75-.64s-.09,0-.07,0a7.85,7.85,0,0,1,.84-.79l.58-.71"></path><path class="cls-1" d="M33.36,27.43a0,0,0,0,1,0,0l.09-.12c0-.05-.06.21-.08.15"></path><path class="cls-1" d="M24.34,32.13a.61.61,0,0,1,.07-.14h0a3.42,3.42,0,0,1-.33.59l.26-.46"></path><path class="cls-1" d="M24,32.66l0-.07c-.06.1-.09.15,0,.07"></path><path class="cls-1" d="M23.26,33.4l0,0-.06.11h0s0,.07,0,.05l.06-.13"></path><path class="cls-1" d="M58.87,10.13l-.32,0,.38,0Z"></path><path class="cls-1" d="M37,22.61c-.08-.22-.43.18-.64.27S36.14,23,36,23a1.51,1.51,0,0,1-.92-.14c-.16-.1.38,0,.54-.12a2.07,2.07,0,0,0,.5-.56s0-.08,0-.1.32-.15.44-.29,0-.25.06-.29.43.08.59,0,.07-.37.16-.53a1.22,1.22,0,0,1,.3-.3s.09,0,.11,0c.15-.27.22-.58.36-.86,0,0,.06,0,.08,0a1.14,1.14,0,0,0,.28-.44c0-.05-.11,0-.15,0-.21.11-.38.28-.59.4a6.1,6.1,0,0,1-1,.53,3.56,3.56,0,0,0-.91.39c-.57.55-.33.52-1,1a3.5,3.5,0,0,1-1,.56c-.15,0-.28-.19-.43-.15s-.36.39-.57.55-.32.21-.46.33-.31.36-.5.49-.16,0-.25,0-.59.65-.52.43c.13-.43.42-.47.66-.74a7.94,7.94,0,0,1,1.62-1.5c.18-.13.43-.17.54-.35s.13-.42.24-.61.13,0,.19-.08.2-.2.3-.3.25-.32.39-.46c.36-.36,1-.64,1.21-1.11,0-.07,0-.17.08-.24s.12,0,.18-.05a5.52,5.52,0,0,0,1.11-.77s-.19.09-.14.06a3.09,3.09,0,0,1,.94-.52A11.07,11.07,0,0,1,39.77,17s.07.05.1,0a5,5,0,0,0,.6-.42c.11-.08.19-.19.3-.27s.25-.16.21-.09c-.18.32-.64.52-.65.88s.44,0,.63-.14a.34.34,0,0,0,.09-.08h0l.08.13c-.34.13-.68.29-1,.4s-.26-.48-.76.45c-.09.18-.24.48-.07.6s.29-.24.44-.35l.71-.44a2.8,2.8,0,0,1,.35-.39,2.42,2.42,0,0,1,.39-.21h0s-.08,0-.09.08.06,0,.13,0c.28.34.12-.49.78-.36.18,0-.22.34-.16.51s.23-.05.34-.1.36-.23.55-.34.14-.12.23-.12,0,.14.08.13a2.06,2.06,0,0,0,.8-.39c.13-.13.51-.37.34-.47s-.47.18-.7.27c-.07,0-.12.11-.18.1s.09-.12.05-.12c-.29,0-.58.12-.87.18,0,0-.13,0-.1,0,.27-.15.55-.3.84-.43,0,0,0,.08,0,.06s0-.23.08-.29.32-.09.47-.16a5.6,5.6,0,0,0,.55-.27s0,0,0,0a.53.53,0,0,1,.23-.17c.08,0,.15.09.23.07a1.19,1.19,0,0,0,.64-.3c.06-.09-.07-.25-.18-.28s-.24.11-.36.15-.54.19-.8.32c0,0,.18,0,.14,0a9.26,9.26,0,0,1-1.46.24c-.18,0,.32-.13.49-.19A5.69,5.69,0,0,0,44,15c.11,0,.46-.23.32-.22s-.45.24-.7.26.19-.16.28-.24.29-.28.45-.4,1.32-.55,1.38-.63c.14-.25-.57-.06-.52-.08s.4-.14.59-.23c0,0,0-.06.06-.09a4.38,4.38,0,0,1,.76-.41c.18-.05.38,0,.56-.09s.27-.15.41-.21c1.68-.68.07,0,1.63-.56a5.29,5.29,0,0,1,.54-.25c.17-.05.35-.05.52-.09,1.51-.39-.35,0,1-.39.4-.14.82-.24,1.23-.34a46.59,46.59,0,0,1,6-.83,42.73,42.73,0,0,0-10.74,1.91A41.62,41.62,0,0,0,23.28,33.38a2.81,2.81,0,0,1,.45-.67c.05-.05,0,.19.07.18s.15-.13.2-.21.12-.36.21-.52.18-.19.2-.17l.18-.36a.14.14,0,0,0,0,.06s0,0,0,0l0,.06c0,.2.3-.27.42-.43a1.84,1.84,0,0,0,.17-.25s0,0,0,0c.14.2.37-.32.53-.51,0,0,0-.17.06-.15s.15.2.22.31,0,.15.05.12.64-.75.7-.76c.25,0,.49.21.74.17s.13-.33.26-.3-.06.35.07.4.39-.35.45-.19-.32.2-.39.37.23.41.08.46-.36-.3-.58-.29-.54.69-.45.77.49,0,.73.06.33.37.41.23c.19-.34,0-.78.11-1.16a2.09,2.09,0,0,1,.21-.56,2.61,2.61,0,0,1,.39-.64c.09-.1.31-.05.37-.18s-.13-.61.08-.75.17.4.36.45.2-.18.26-.29.26-.4.12-.48c-.37-.21-.85-.09-1.26-.17-.05,0-.17-.05-.12-.08.21-.14.51-.12.69-.29s0-.53.19-.54.26.47.49.52.44-.44.55-.26-.07,1.51.32,1.71c.12.07.29,0,.42,0s.21-.23.33-.2c.38.08.26.36.3.46h0c-.18.05-.3.21-.46.31s-1.05.69-1.35.82c-.05,0,.15-.09.12-.14s-.16,0-.17,0,.11.2.07.29c-.17.38-.77.46-.37,1,.07.1.4-.09.36,0s-.4.34-.55.55-.06.22,0,.24a.64.64,0,0,0,.46-.09l.09-.08c-.24-1.15.62.13.73-.23,0-.12-.26-.11-.28-.22s.19,0,.24,0-.09-.17,0-.23.4,0,.4-.13-.37-.18-.42-.36a.87.87,0,0,1,.1-.72c.06-.09,1.11-.72,1.35-.93L32,29.35a3,3,0,0,0,.54-.29c1.21-.76.25-.34.52-1.16a1.89,1.89,0,0,1,.33-.5c-.15-.4.36,0,.39-.16s-.19-.46-.15-.7.27-.2.32-.35-.27.1-.23,0c.2-.3.52-.52.73-.81a3.6,3.6,0,0,0,.29-.55s0,.1,0,.1c.47,0,.48-.41.78-.73.1-.11.31-.12.37-.25s-.23-.07-.18-.13.48-.26.68-.44c0,0,0-.13,0-.19.14-.32,1,.49.64-.62m4.62-6.24c.1-.08.15-.27.27-.26s-.11.19-.2.26a2.48,2.48,0,0,1-.58.41.64.64,0,0,1,.11-.16,4.37,4.37,0,0,1,.4-.25m-17,15.25c0-.07.08-.16.1-.2.16-.25.31-.51.46-.76l-.27.48c0,.07.09-.12.13-.19a4.92,4.92,0,0,1,.37-.56s.08,0,.06.07l-.14.19-.12.16c-.2.26-.46.61-.59.81"></path><path class="cls-1" d="M59,85.24l.12,0-.12,0"></path><path class="cls-1" d="M58.91,85.17h0s0,0,0,0"></path><path class="cls-1" d="M59,85.24l-.12-.06.12.06"></path><path class="cls-1" d="M65,92.4H65l.09,0Z"></path><path class="cls-1" d="M92,68.48l.09-.11a.44.44,0,0,1-.09.11"></path><path class="cls-1" d="M91.89,68.56a.39.39,0,0,1,.1-.08l-.1.08"></path><path class="cls-1" d="M64.11,24.69c-.16,0-.33-.13-.49-.16s.46,0,.49.16"></path><path class="cls-1" d="M98.36,52.58a3.11,3.11,0,0,0,.2-.41c0,.1-.08.21-.12.32s-.1.13-.08.09"></path><path class="cls-1" d="M62.16,10.12l2,.2c-.65-.06-1.33-.1-2-.14Z"></path><path class="cls-1" d="M101.07,45.75a2.79,2.79,0,0,0-.1-.39c0-.58-.06-1.16-.11-1.74a.86.86,0,0,1,0-.26l0,.08,0-.11a.39.39,0,0,0,0-.24l-.09-.43A43.57,43.57,0,0,0,98.33,35,41.29,41.29,0,0,0,69.16,11a37.58,37.58,0,0,0-5-.69,18.53,18.53,0,0,1,4,.74c.24.07,1.28.31,1.47.4a2.46,2.46,0,0,1,.41.38,4.16,4.16,0,0,0,1.52.57s.1-.05.15,0a3.53,3.53,0,0,1,.59.35c.11.07.17.2.29.25a9.84,9.84,0,0,1,1,.26c0,.24-.27.42-.31.66s.19.2.14.3-.32-.13-.26-.06c.21.22.63.27.74.56s-.37-.12-.56-.08.07.14.13.18.24.1.35.18.27.31.42.45l.05,0a10.77,10.77,0,0,0-2.13-1.09s-1.69,0-1.46.48.79.61,1.31.65l-.05,0c-.12.15.19.33.27.5a2.42,2.42,0,0,0,.25.54c.17.21.46.29.65.48,0,0-.19.05-.14.07a5.11,5.11,0,0,0,.66.22.79.79,0,0,0,0,.7c.06.17.31.15.49.19.4.08.83.07,1.24.17.14,0,.23.18.35.25a3.19,3.19,0,0,1,.81.39c.11.1-.3,0-.45-.06s-1.44-.78-1.69-.29c-.37.76,1.16.6,1.17.61.11.18-.39.17-.6.18a6.94,6.94,0,0,1-.92-.54c-.1-.05-.4-.14-.33-.06s.42.17.58.32.16.4.33.51.46.1.69.17a.79.79,0,0,1,.18.14c.14.12.66.66.91.62s.36-.36.59-.4c.75-.13.33.38.83.53.11,0,.39-.21.3-.13s-.22.2-.35.17-.73-.6-.95-.46-.1.29,0,.4.57.24.79.44c.87.79.11.12.51.85,0,.08.25.1.19.17-.36.48-.84.32-.85.23s.26-.25.25-.41A1.74,1.74,0,0,0,76.84,21c-.15-.07-.35,0-.51-.09a7.82,7.82,0,0,1-1-.57A2.88,2.88,0,0,0,75,20c-.18-.09-.4-.05-.57-.15s-.59-.72-.8-.65c-1.08.36.09.65.23.94s.08.35.2.48.22,0,.32.06c.47.22.91.52,1.39.72a3.56,3.56,0,0,1-.7.29c-.62.15-.51-.26-1.13.17-.28.19.24.23.38.38s.12.26.2.38.27.16.2.22-.42.08-.62.15c-.65.23-.25.15-.68.63,0,0,.06-.11,0-.17s-.08-.35-.23-.42-.17.13-.22.22,0,.19-.07.28c-.16.36-.38.7-.52,1.07s.06.55-.13.67-.47,0-.55-.22.41-.39.26-.48a.64.64,0,0,0-.77.16c-.3.39.72.73.75.81.16.37-.61.29-.63.31s0,.21,0,.31-.25.35-.32.55.68.29.59.54-.5.29-.78.33c-.07,0,.09-.17,0-.2a.86.86,0,0,0-.66-.09c-.11,0,0,.27.07.34s.5.05.69.2.15.37,0,.4a2.14,2.14,0,0,1-1-.2.58.58,0,0,1-.32-.1,1.52,1.52,0,0,1-.46-.58c0-.1.16-.2.1-.29s-.56-.17-.44-.29.64-.21,1-.27c.06,0,.13,0,.19,0s.12,0,.14,0c.44-.66,1-1,.24-1.39A2,2,0,0,0,70,25a6.54,6.54,0,0,0-1.6-.48,2.81,2.81,0,0,0-.65,0c-.06,0,0,.17-.1.16a4.16,4.16,0,0,1-.66-.27c-.1,0-.24.05-.32,0s-.29-.44-.49-.6-.22,0-.33-.05a2.08,2.08,0,0,0-.48-.11c-1.46.11.24.22-1,1a.3.3,0,0,1-.21,0s0,.09-.13.14-.26-.1-.4-.09a.89.89,0,0,0-.35.11c-1,.46,0,.22-.6,1.23-.07.11-.29-.07-.4,0s.12.1.12.17c-.1,1.1-.09.33-.69.64-.09,0,0,.21-.12.28s-.26,0-.29.1.18.2.18.32a1.89,1.89,0,0,1-.23.73c-.85,1.72.3-1-.6.48,0,.06.17.15.1.18-.56.26,0-.46-.47,0-.14.16-.57.39-.4.53s.47-.27.73-.28c.09,0,.15.22.07.27s-.51,0-.73.12-.21.26-.34.34-.23,0-.34.06,0,.11-.08.12-.36-.08-.48,0-.08.56-.29.7-.36-.17-.55-.14-.07.21,0,.24c.23.09.66-.17.74.06.18.46-.74.33-.89.47s0,.13.1.13c.68.06.46-.12,1-.11.06,0,.24,0,.18.05-.4.12-.81.17-1.21.27-.07,0-.13,0-.1,0a1,1,0,0,0,.56.31c.13,0,.42-.15.43,0,0,.66-1.77.71-.93,1.46a4.78,4.78,0,0,0,1.25.52s.06.12.1.09a4.92,4.92,0,0,0,.57-.64c0-.07.06-.16.12-.22s.34-.19.45-.34,0-.4.06-.31,0,.4.08.57.46.47.57.77-.12.37-.08.55c.53,2.49.09-.31.63.93a.38.38,0,0,1,0,.36c0,.06-.2-.12-.2,0l0,.22c-.09,0-.42.2-.6.26s-.26-.06-.27,0,0,.54.21.48.45-.49.66-.75a1.84,1.84,0,0,0,.2.57c.06.1.74,0,.75,0,.17-.19.07-.53.23-.72s.68-.3.91-.57-.07-.3-.06-.46.12-.1.11-.16-.18-.24-.18-.38.15.06.18,0a.46.46,0,0,0,0-.38c-.07-.12-.4-.14-.33-.26s.4,0,.58-.13a1,1,0,0,0,.47-.36c0-.09-.22,0-.28-.06a.71.71,0,0,1-.12-.23.35.35,0,0,0,.08.11c.12.07.56-.35.57-.36s-.58-.61-.63-.69a6.56,6.56,0,0,1-.48-1.55c0-.15.27-.17.37-.29s.22-.47.4-.64.36-.1.48-.23c.81-.85.09-.29,0-.83,0-.1.18-.16.18-.26s-.16-.06-.17-.13c0-.54.74-.52,1-.49s.77.19.67.6c0,.12-.25.06-.31.16a5,5,0,0,0-.2.66,1.5,1.5,0,0,1-.27.34c0,.05-.16,0-.18.11s.1.14.06.2-.42.24-.43.45a5.07,5.07,0,0,0,.36,1.4c0,.13,0,.3.13.38l1,.38c0,.08-.24.23-.16.21a7.87,7.87,0,0,0,.7-.39c.08,0,.17,0,.24,0s.35-.36.57-.47c.05,0,.05.15.1.14s.3-.21.48-.2a2.76,2.76,0,0,1,1.22.31c.15.09-.36,0-.54.09s-.24.17-.38.21a5.94,5.94,0,0,0-1.65.56s0,.13-.07.16-.25,0-.28.08a1.38,1.38,0,0,0,.29.73c.13.06.32-.14.41,0s-.06.29,0,.44.28.36.18.5c-.67.9-.67-.93-1.41-.13-.08.08-.07.22-.09.33a2.78,2.78,0,0,0-.1.76,5.36,5.36,0,0,0,.29,1c0,.08.14.19.07.22s-.5-.05-.7.07,0,.37-.14.45c-.35.21-.45-.3-.74-.27a3.26,3.26,0,0,0-.76.26c-.06,0-.14,0-.2.06s-.09.21-.19.27a2.49,2.49,0,0,1-.47.12,2.84,2.84,0,0,0-.61.29s.08.14,0,.12c-.35-.2-.62-.57-1-.67-.14,0-.1.29-.23.36a.86.86,0,0,1-1.27-.32c0-.08.12-.21.06-.29s-.26.05-.28,0a1.29,1.29,0,0,1,.07-.8c0-.07.2.07.25,0s.06-.37.18-.49.13.13.2.1c.31-.15,0-1.25-.07-1.42s-.23.07-.31.15-.29.2-.3.36.34,0,.29.09-.35.1-.48.22-.66.74-.56,1.1a3.59,3.59,0,0,0,.23.59.25.25,0,0,0-.13,0s0,.07,0,.1a1.08,1.08,0,0,0,.19-.08,3.12,3.12,0,0,1,.18.48c0,.11-.11.24,0,.34s.73.32.53.39-.42-.4-.66-.35,0,.44-.12.5-.14-.36-.29-.34-.26.38-.46.43-.46-.22-.69-.19-.31.2-.46.32l-.1.05c-.06,0-.16-.07-.2,0a4.41,4.41,0,0,0-.24.67c-.06.13-.21.21-.25.35s.19.28.09.34-.34-.13-.5-.09-.37.29-.58.38-.48,0-.61.15.1.47,0,.64-.46.13-.67.23a1.58,1.58,0,0,0-.39.29c0,.05,0,.16-.08.17a1.08,1.08,0,0,1-.69-.09c-.1-.06.07-.26,0-.35s-.34-.2-.41-.08c-.59,1,1.06.1-.18,1a.62.62,0,0,1-.5.13c-.15-.06-.12-.33-.26-.4a4.1,4.1,0,0,0-1,.18,2.36,2.36,0,0,0,.81,1.14c.1.09.43-.36.49,0,0,.08-.19.13-.14.18s.44,0,.49.15-.28.18-.31.33.11.23.15.36a4.09,4.09,0,0,1,.32,1c.12.93-.06.64-.32,1.21-.1.22-.14.47-.26.68s-.57,0-.86-.06c-.07,0-.13.12-.2.1s-.21-.22-.35-.25-.42.07-.62,0c-.56-.11-1.09-.34-1.64-.48,0,0,0,.07,0,.06-.18-.11-.28-.39-.49-.38-1.9.07-.64.52-.78,1.24-.09.48-.25,1-.35,1.43,0,0,0,.06,0,.09a4,4,0,0,1-.71,1.15s-.13,0-.15,0a1,1,0,0,0-.19.6,2.08,2.08,0,0,0,1.15,1.79c.13.07.32-.1.43,0s.09.42.2.59a6.4,6.4,0,0,0,.67.71h0c.77-.08,1.54-.22,2.32-.26.06,0,.1.17.16.12s.23-.44.44-.56.53,0,.73-.13,0-.37.1-.51.42-.2.55-.39c0,0-.15-.85-.15-.88s.2-.28.3-.41c.42-.51.6-.85,1.24-1.06s.46.28,1.1-.44a1.35,1.35,0,0,0,.24-.66c0-.22-.2-.54,0-.67a2.75,2.75,0,0,1,1.4-.32c.06,0,0,.14,0,.19a.51.51,0,0,0,.23.15c.18.08.37.25.56.19.35-.1.59-.42.89-.62.14-.1.37-.06.49-.15s.27-.48.51-.5c.79-.07,1.08.62,1.23,1.18,0,.1-.07.21,0,.3a1.54,1.54,0,0,0,.43.52c.1.08.27,0,.38.1s.08.19.15.26a8.25,8.25,0,0,1,.81.62c0,.05,0,.15.1.16s.34-.12.49,0,.12.33.26.43.4,0,.55.11.2.45.39.6.23-.09.29,0a2.6,2.6,0,0,1,.48,1.07c0,.21-.61.74-.4.92.37.31.59-.23.69-.47s-.07-.26,0-.36.35-.1.44-.24c.41-.65-.86-.17-.5-1,.21-.51.42-.58.91-.24.1.07.08.24.16.33s.51.22.33-.23c-.32-.79-1.33-.76-2-1.14a6.86,6.86,0,0,1-1.39-1c-.24-.25-.18-.81-.41-1s-1.16-.56-1-1.12a2.58,2.58,0,0,1,.87-1c0-.05.06.14.12.17s.44.12.59.27.17.49.32.69.35.13.4.29-.3,0-.26.09c.57,1.24,1.58.19,1.91,1.21,0,0,0,0,0,0a6.08,6.08,0,0,1,.72.24s-.08.07-.06.11c.25.62.6,1.21.83,1.84,0,0-.18,0-.15,0s.34.19.47.33.08.23.14.33.21.23.31.36a3.47,3.47,0,0,0,.31.44,2,2,0,0,0,.56.39c-.1.07-.17.22-.19.5s.36.17.46.34,0,.47.1.6.2-.29.32-.23.06.43.24.49.09-.34.23-.34.23.31.39.3,0-.21-.1-.31a3.67,3.67,0,0,1-.39-.73c-.06-.23.4-.58.57-.56s.25.42.4.34.06-.39-.05-.54a2.3,2.3,0,0,0-.83-.42c-.13,0-.44.08-.4,0s.54-.18.57-.41c.09-.61-.5-.39-.65-.73-.06-.13-.2-.38-.07-.43.34-.13.83.56,1.08.36s-.26-.3-.15-.39.48.28.42.15-.46-.26-.58-.47.19,0,.28-.05a2,2,0,0,0,.48-.2c.08-.05.11-.19.21-.2a1,1,0,0,1,.67.17c.17.15,0,.54.21.63v.11c0,.39.09.56.16.62s.08.27.19.28,0-.14,0-.26c.17-.06.36-.23.51.27,0,.11-.25.15-.21.26s.42,0,.35.13-.71.07-.64.3.58,0,.79.16-.22.24-.14.32a2.17,2.17,0,0,0,.89.43c.06,0,.21-.07.17,0s-.57.22-.64.47.35.09.5,0,.11-.37.26-.37c2.87,0-1.3.63,1,.53,1.08,0,0-.94.84-.92a2.28,2.28,0,0,1,.73.12c.22.08.32.49.65.35,2.06-.87-.53,0,1.11-1.09.14-.1.35.18.51.11s.16-.57.36-.51,0,.41,0,.62a2.64,2.64,0,0,0,.13.68c0,.06.13.06.16.12.47,1,0,1.65-.12,3,0,.27,0,1-.27,1.13a6.38,6.38,0,0,1-1.71.3h0a2.05,2.05,0,0,0-.65.1c-.2.11-.31.35-.5.48s-.18,0-.24,0-.4.55-.59.55c-.74,0-1.47-.14-2.21-.21a1.09,1.09,0,0,0-.36,0c-.16,0-.29.21-.45.19A4.32,4.32,0,0,1,71,58.29s0,0,0,0c-.17-.06-.38.14-.53,0s-.07-.35-.21-.44a2.08,2.08,0,0,0-.79-.19,2.38,2.38,0,0,0-1.23.53c-.49,1.41.23,1.41-.84,2.27-.32.25-.85-.32-1-.38a2.5,2.5,0,0,0-.7-.23c-.48-.09-1.24.08-1.57-.44-.14-.21-.07-.57-.29-.7-2.2-1.34-.87-.12-2.35-.34-.6-.1-.81-.56-1.32-.83-.09-.05-.23.06-.31,0-.88-.7.68-.77.66-1.49,0-.16-.59-.75-.55-.86.29-.91,1.33-.74-.47-1.19-.53-.14-.51.26-1,.37a2.93,2.93,0,0,1-.66,0,3.69,3.69,0,0,1-.47,0c-.18,0-.35-.18-.54-.19s-.11.12-.19.15a1.57,1.57,0,0,1-.71.23,10.32,10.32,0,0,1-1.21-.33,6.16,6.16,0,0,0-2.68.38c-.12.08-.17.28-.31.32s-.43-.09-.63,0-.52.39-.81.52-.6-.38-.86-.45-.19.18-.31.19a2.41,2.41,0,0,1-1-.22,1.57,1.57,0,0,1-.35-.42c-.07-.12,0-.75-.46-.29-.29.28-.58,1.43-1,1.58s-.92.09-1.27.35c-.12.1-.22.22-.34.31s-.26.11-.34.22,0,.24-.06.34-.32.25-.38.43c-.43,1.31.25,1-.61,1.85a4.63,4.63,0,0,1-1.68.86c-.52.1-.57-.3-.86.12-.14.18-.17.45-.34.59s-.67.14-.83.4a5.07,5.07,0,0,0-.37.64c-.07.17,0,.39-.13.53a1.79,1.79,0,0,1-.59.37c-.11.06-.51.07-.32.2s.22-.18.19-.11a3.94,3.94,0,0,1-.42.67s-.09.06-.11.1-.07.23-.16.32-.25.1-.35.19,0,.11,0,.17a2.53,2.53,0,0,0-.17.76c0,.1.19.1.25.18s.31.32.31.52-.31.35-.31.57c0,.49.42,1,.24,1.46-.1.26-.28.48-.38.74-.17.45.12.54-.36.94-.13.11-.39,0-.49.15s.17.11.25.18a4.09,4.09,0,0,1,.57.61s-.07.08-.09.13a.55.55,0,0,0-.07.24.46.46,0,0,0,.12.24s.18,0,.17.12c-.07.41-.26-.32-.41-.31s-.08.22,0,.3a7.83,7.83,0,0,0,.81.7c.08.08-.18-.13-.28-.18s-.71-.4-.52,0a1.41,1.41,0,0,0,.42.49c.09.06.26,0,.32,0s-.27.08-.2.12.56-.06.72.12-.36.12-.36.27.24.3.34.45a3.12,3.12,0,0,0,.27.43c.14.16.36.24.5.39a4.85,4.85,0,0,1,.55.79c0,.06,0,.15,0,.22.09.25.25.48.34.74,0,0-.09.08-.06.11s.62.26.61.42-.28,0-.24,0,.36.22.53.34c.84.61,0,0,.38.42,1.44,1.5-.22-.26.83.64.49.41,1.31,1.52,2,1.61a21.27,21.27,0,0,1,4.25.62c.06,0-.28,0-.22,0a11,11,0,0,0,1.58.3,6.33,6.33,0,0,0,.76-.12c1.32,0,2.63-.07,4-.08.45,0,.4.29.87.51.07,0,.17-.14.21-.08.28.44,0,1,.76,1.09.21,0,.33-.31.54-.32s.57.21.86.26a.88.88,0,0,0,.58,0c.08,0-.2-.22-.11-.27.33-.19.47.47.85.62.17.08.42-.17.57-.06.47.36.11.71.07,1.07s.07.53,0,.77c-1.28,3.53.49-2.91-1,.86,0,.13.16.22.24.33a2.43,2.43,0,0,0,.24.32h0a3.54,3.54,0,0,1,.77.34c.1.08-.48-.13-.39,0,.34.3,1.38.72,1.82,1s0,.22.41.69c.15.17.9.81.94,1.06s-.37,0-.35.14,1,.6.64.94a2.19,2.19,0,0,1-.73.41c-.11.06-.26.06-.35.14s-.17.37-.31.51-.27.07-.34.18,0,.24,0,.36,0,.15,0,.19a3.63,3.63,0,0,0,.58.21c.44.16.87.34,1.3.52,0,0,.09,0,.09,0s-.1.06-.07.07c.68.18,1.36.3,2.05.45q1.08-.09,2.16-.27A46,46,0,0,0,73,90.71h.08c1.12-.37,2.15-.87,3.22-1.32a3.6,3.6,0,0,0,1-.44c.16-.18.16-.46.33-.64s.3-.11.44-.18a11.23,11.23,0,0,0,1.38-.85c1-.63,2.45-1.11,3.1-2.12a6.18,6.18,0,0,0,.37-.61c.06-.13,0-.29.08-.42s.23-.2.31-.33-.09,0-.1,0a1.36,1.36,0,0,1-.34-.69c0-.18.34-.26.33-.44s-.4,0-.39-.18c.05-.43.67-.91.92-1.24.09-.12.14-.28.24-.41s.1,0,.13-.09,0-.23.12-.32.4-.27.57-.45,0-.11,0-.14.21-.09.3-.16a3.58,3.58,0,0,0,.55-.77c.56-.73,1.22-1.43,1.81-2.13.37-.42.79-.79,1.15-1.22a12.48,12.48,0,0,0,1.34-2,14.62,14.62,0,0,0,.76-1.47c.2-.48.32-1,.53-1.45a7.63,7.63,0,0,0,.61-1.37c0-.21,0-.43,0-.63a.19.19,0,0,1,.09-.11s0,0,0,0a1.37,1.37,0,0,1,0-.63c0-.15.17-.29.11-.42s-.21,0-.28.08-.24.43-.39.62a5.58,5.58,0,0,1-.49.48c-.56.55.45-.44-.42.27-.09.08-.13.2-.22.28a4.56,4.56,0,0,0-.44.24c-.23.21-.35.52-.59.71s-.28.08-.43.12c-.54.15-1.08.29-1.62.47-.17.06-.54.42-.5.24s.48-.38.59-.66-1.44-1.09-1.58-1.12-.48.13-.71.07-.1-.33-.22-.31,0,.41-.1.37c-.45-.17-.51-1.51-1-1.92a2.12,2.12,0,0,0-.65-.29c-.08,0-.22,0-.26,0a3,3,0,0,1-.18-.74,8,8,0,0,1-.27-.92c0-.06.17,0,.15-.09s-.25-.21-.32-.35,0-.26,0-.34a1.66,1.66,0,0,0-.56-.33c-.16-.09-.42-.09-.5-.26s.16-.5.06-.72-.42-.18-.58-.34c-.56-.56-.26-.49-.58-.9s-.27-.08-.57-.67c0-.07.05-.17,0-.24-.13-.25-.37-.45-.52-.7,0,0,.11,0,.08,0-.5-.55-.92-.45-1.17-1.31,0-.09.2-.11.28-.06.57.29.51,1.54,1.35,1.29.15,0,.19-.21.22-.39,0,0,0,0,0,0s.32-.18.47-.12.62.7.81.94a2.93,2.93,0,0,0,.36.43s.12,0,.15,0,0,.18,0,.24a3,3,0,0,0,.45.35c.23.21.42.46.66.66s.32.1.42.22a3.29,3.29,0,0,1,.66,1c.06.14-.11.3-.09.46a1.51,1.51,0,0,0,.25.6c.57.81.38.15,1.22.6.46.25.33.82.86,1.2.11.08.33,0,.38.13.21.49.17,1.06.34,1.57,0,.08.18,0,.22.1a3.1,3.1,0,0,1,.28.79s-.13.74.19.65c1.16-.33.79-.56,1.35-1.22.11-.13.48-.31.65-.45,2-1.81-1.16,1,.77-.94.12-.11.32-.13.42-.26s.21-.47.37-.68.44-.51.65-.77.7-.6.88-1.07c.06-.15,0-.34,0-.5a7.93,7.93,0,0,1,.88-1.27c.16-.14.38-.21.48-.4s0-.51.11-.74.34-.27.43-.45a5.21,5.21,0,0,0,.13-.79,18,18,0,0,0,.85-3.79c0-.4-.55.23-1.41-.25-.36-.19-.43-1.27-.73-1a1.43,1.43,0,0,0-.32.33c0,.12,0,.26,0,.39-.08.36-.17.71-.28,1.06a5.59,5.59,0,0,1-1.31,1.12c-.7.23-.22-.64-.24-.66s-.43-.21-.54-.07.36.53.17.56c-.54.09-.5-1.12-.71-1.3a2.25,2.25,0,0,0-.68-.41c-.08,0-.18.13-.25.07s-.25-.45-.42-.64-.49-.23-.6-.46.24-.17.24-.29-.26-.2-.23-.33.24-.07.34-.14c.36-.28.3-.54.8-.66.14,0,.69.61.83.85s.12.39.29.46.48-.09.71,0c.54.09.79.56,1.29.12.25-.22.58-1.4.87-1.31s.27.63.51.87a2.37,2.37,0,0,0,.82-.38c.23-.17.36-.45.6-.62a5.06,5.06,0,0,0,.46-.24l1.08-1.21s0-.1,0-.15.24-.34.33-.52,0-.31.12-.36.12.17.21.23a6.44,6.44,0,0,0,.7.34c.15.08.31.33.44.23s.07-.58.28-.73,0,.35,0,.52,0,.19-.08.29a3.89,3.89,0,0,1,.75-1.28c.19-.17,0,.51.07.76.1.53.22,1.05.37,1.56,0,.08,0-.31,0-.23a7.66,7.66,0,0,1,.21,1c0,.22,0,.45.12.66.28.9.33.54.44,1.19s.21,1.39.32,2.07c0,0,0,.16,0,.12.72-4.74.42-6.67.16-12.22M72.54,15.65a1.6,1.6,0,0,1-.37-.15,2.34,2.34,0,0,1,.67.13c.09,0-.2,0-.3,0M74,17.53a.37.37,0,0,1-.14-.14,5.27,5.27,0,0,1,.56.19c.14.05-.29,0-.42,0M57.91,31.85a.28.28,0,0,1-.16,0c.09,0,.2,0,.16,0m11.18,20.6s0-.12,0-.11c.22,0,.5,0,.65.2s-.13.24-.24.25a2.76,2.76,0,0,1-.68-.25l.27-.09m10.57,7.26a.52.52,0,0,1,.06-.13c0-.06,0,0-.06.13M81.1,46.34a2.62,2.62,0,0,1-.61.82c-.14.09-.33,0-.5,0-.73,0-1.46.09-2.19.16-.17,0-.32.15-.49.11s-.16-.3-.3-.29-.47.22-.71.31c-.09,0-.2,0-.29,0-.49.23-.64.7-1.09,1a4.6,4.6,0,0,1-.85.38c-.1,0-.24-.05-.31,0s-.22.56-.43.75a2,2,0,0,1-.81.38c-.17,0-.46,0-.67,0a.1.1,0,0,1,0,0c.11-.12.28-.19.38-.32s0-.25.09-.3a4.54,4.54,0,0,1,.91-.14s.13-.05.1-.07c-.19-.17-.45-.23-.64-.4s-.11-.29-.21-.41-.42-.2-.47-.4.11-.49.16-.74c.09-.46.2-.93.27-1.4,0-.12-.07-.26,0-.37s.3-.24.45-.36c0,0,.15-.45.21-.68a4.09,4.09,0,0,1,.17-.71.63.63,0,0,1,.34-.32c.09,0,.29.18.3.07s-.36-.68-.24-.53a2.34,2.34,0,0,1,.39.73c0,.06-.17.12-.11.16a1.34,1.34,0,0,0,1,0s0-.12.07-.11.19.1.16.17-.83.41-.63.69.53-.05.72.11-.13.78.23.6c.17-.08.26-.28.42-.39s.27-.07.36-.17,0-.3.16-.38.65.06.53-.07-.52,0-.75-.16-.54-.52-.49-.62c.44-1,.32-.27,1-.73.08-.06,0-.19.08-.26a2.23,2.23,0,0,1,.59-.43c.19-.1.47-.36.62-.2.47.5-.73.66-.76.69-.32.38.51,0,.67.42.05.11-.32,0-.35.11s.22.49.11.7-.76.12-.62.31.77.32,1.17.43c.12,0,.24,0,.36,0,.31.12.55.38.87.47.78.24,1.27.21,1.61,1.09a.42.42,0,0,1,0,.36"></path><path class="cls-1" d="M64.74,48.3a4.2,4.2,0,0,0,.5.17,1.38,1.38,0,0,1-.5-.17"></path><path class="cls-1" d="M19.49,52.46c0,1.52.06,3,.09,4.58a18.22,18.22,0,0,1-.14-4.48Z"></path><path class="cls-1" d="M27.71,76.49h0a41.16,41.16,0,0,1-6.37-11.84,39.37,39.37,0,0,1-1.39-5.22,12.5,12.5,0,0,1-.35-2c0-.13,0-.27,0-.4.1.59.23,1.28.41,2.09,0,0,0-.19,0-.14.26.83.67,2.34.86,3.08.14.54.25,1.09.4,1.62.09.32.37.61.3.92,0,.07-.17,0-.16.11s.62,1.48.71,1.71,0,.24.1.34.27.23.38.36a2,2,0,0,1,.23.52c.18.37.41.72.57,1.1s.13.48.22.71.21.12.28.21.29.52.45.77.52.71.8,1.07c.57.72,1,1.59,1.49,2.35.81,1.14-.37-.64.8.93a6.32,6.32,0,0,1,.85,1.65c0,1-.47,0-.54,0"></path><path class="cls-1" d="M28.48,77.48c-.27-.32-.52-.65-.78-1-.08.07.11.19.21.3.23.31.46.6.71.9Zm-.56-.68a.21.21,0,0,1,0,.06l0-.06"></path><path class="cls-2" d="M108.39,62.31A53.32,53.32,0,0,1,70.8,102.54,51.77,51.77,0,0,1,6.37,66.72C-1.24,39,15.26,10,43.22,2a52.65,52.65,0,0,1,26.07-.75A47.33,47.33,0,0,0,48.57,2.48C22.86,9.81,7.85,37,15.05,63.21s33.86,41.54,59.57,34.22a48.79,48.79,0,0,0,33.77-35.12"></path><path class="cls-3" d="M1.72,82c6.2,13.43,34.06,13.76,62.24.76s46-34.44,39.8-47.86a14,14,0,0,0-4.09-5.09,12.94,12.94,0,0,1,1.53,2.48c5.85,12.69-11.29,33.07-38.3,45.54S9.26,90.07,3.41,77.39c-1.62-3.5-1.48-7.58.13-11.92-3.2,6-4,11.74-1.82,16.48"></path><path class="cls-4" d="M1.23,77.87c6.2,13.43,34.06,13.77,62.24.76s46-34.43,39.8-47.86a13.92,13.92,0,0,0-4.1-5.08,12,12,0,0,1,1.54,2.48c5.85,12.68-11.3,33.07-38.3,45.53S8.77,86,2.91,73.31C1.3,69.81,1.44,65.73,3,61.4c-3.19,6-4,11.74-1.81,16.47"></path><path class="cls-1" d="M125.79,23.28h18.76v6.4H132.28V35.9h12.27v6.28H132.28v9h12.27v6.43H125.79Z"></path><path class="cls-1" d="M180.13,52.63l6,7.73h-7.74l-3-3.91a18.17,18.17,0,0,1-21.27-3.28,17.73,17.73,0,0,1-5.12-12.72,17.81,17.81,0,0,1,8.94-15.6,17.52,17.52,0,0,1,9-2.43,17.08,17.08,0,0,1,12.56,5.28,17.56,17.56,0,0,1,5.25,12.87A17.49,17.49,0,0,1,180.13,52.63ZM176,47.34a11.9,11.9,0,0,0,2.08-6.82,11.48,11.48,0,0,0-3.3-8.29,10.69,10.69,0,0,0-8-3.41,10.86,10.86,0,0,0-8.07,3.32,11.53,11.53,0,0,0-3.25,8.43,11,11,0,0,0,4.09,9,11.27,11.27,0,0,0,7.28,2.59,10.7,10.7,0,0,0,4.4-.91l-6.15-7.92H173Z"></path><path class="cls-1" d="M190.59,23.28h6.57V45.51a11.68,11.68,0,0,0,.5,4.06,4.07,4.07,0,0,0,1.66,1.9,5.26,5.26,0,0,0,2.79.71,5.43,5.43,0,0,0,3-.79,4.2,4.2,0,0,0,1.73-2,15,15,0,0,0,.48-4.68V23.28h6.56V43.77a29.78,29.78,0,0,1-.58,7.2,10.21,10.21,0,0,1-2.23,3.88,10.38,10.38,0,0,1-3.8,2.76,12.86,12.86,0,0,1-5,.9,12.1,12.1,0,0,1-6.5-1.71,10,10,0,0,1-4-4.3q-1.2-2.58-1.2-8.73Z"></path><path class="cls-1" d="M231.94,23.28h6.64l13.21,34.37H245l-2.68-7.08h-14l-2.79,7.08h-6.8Zm3.36,9.11-4.61,11.8h9.19Z"></path><path class="cls-1" d="M253.46,23.28h19v6.45H266.2V57.65h-6.64V29.73h-6.1Z"></path><path class="cls-1" d="M293.17,22.42a17.07,17.07,0,0,1,12.54,5.28A17.56,17.56,0,0,1,311,40.57a17.37,17.37,0,0,1-5.18,12.73,17.94,17.94,0,0,1-25.42-.14,17.71,17.71,0,0,1-5.12-12.71,17.83,17.83,0,0,1,2.38-9.06,18,18,0,0,1,15.55-9Zm-.07,6.4a10.78,10.78,0,0,0-8,3.32,11.53,11.53,0,0,0-3.25,8.43,11,11,0,0,0,4.09,9,11.2,11.2,0,0,0,7.29,2.59,10.65,10.65,0,0,0,7.93-3.36,11.41,11.41,0,0,0,3.28-8.3,11.45,11.45,0,0,0-3.3-8.3A10.74,10.74,0,0,0,293.1,28.82Z"></path><path class="cls-1" d="M317.57,23.28h6.93q5.7,0,8.11,1a8.34,8.34,0,0,1,3.89,3.37A10.38,10.38,0,0,1,338,33.26a9.49,9.49,0,0,1-1.63,5.66,9.84,9.84,0,0,1-4.89,3.45l8.14,15.28h-7.15l-7.73-14.56h-.6V57.65h-6.54Zm6.54,13.44h2.05a8.1,8.1,0,0,0,4.3-.82,3.1,3.1,0,0,0,1.17-2.72A3.25,3.25,0,0,0,329.49,30a11.92,11.92,0,0,0-3.58-.36h-1.8Z"></path><path class="cls-4" d="M125.46,64.66h6a35.29,35.29,0,0,1,6.93.44,7.71,7.71,0,0,1,4.2,2.6,8.38,8.38,0,0,1,0,9.88,7.82,7.82,0,0,1-4.38,2.62,39.21,39.21,0,0,1-7.62.49h-2.14V94.62h-3Zm3,2.93V77.75l5.07.07a13.32,13.32,0,0,0,4.5-.56,4.66,4.66,0,0,0,2.24-1.81,5,5,0,0,0,.82-2.8,4.88,4.88,0,0,0-.82-2.75,4.46,4.46,0,0,0-2.14-1.78,13,13,0,0,0-4.37-.53Z"></path><path class="cls-4" d="M150.34,64.66h6a36.56,36.56,0,0,1,6.76.4,7.8,7.8,0,0,1,4.34,2.62,7.5,7.5,0,0,1,1.67,4.95,8,8,0,0,1-1.15,4.3,7.21,7.21,0,0,1-3.29,2.81,15.31,15.31,0,0,1-5.91,1l10.78,13.91H165.8L155,80.71h-1.7V94.62h-3Zm3,2.93V77.77l5.16,0a12.86,12.86,0,0,0,4.44-.57,4.62,4.62,0,0,0,2.25-1.83,5.11,5.11,0,0,0,.8-2.8,4.89,4.89,0,0,0-.81-2.74A4.55,4.55,0,0,0,163,68.12a13,13,0,0,0-4.4-.53Z"></path><path class="cls-4" d="M175.07,64.66h3v30h-3Z"></path><path class="cls-4" d="M185,94.62v-30h.65l19.94,23v-23h3v30h-.68L188,71.93V94.62Z"></path><path class="cls-4" d="M243.7,70.22,241.33,72a12.86,12.86,0,0,0-4.69-3.86,13.68,13.68,0,0,0-6-1.31A13.28,13.28,0,0,0,224,68.58a12.32,12.32,0,0,0-4.74,4.62,12.8,12.8,0,0,0-1.68,6.53,12.26,12.26,0,0,0,3.76,9.15,13,13,0,0,0,9.48,3.66,13.31,13.31,0,0,0,10.53-4.93l2.37,1.8a15.2,15.2,0,0,1-5.59,4.41,17.55,17.55,0,0,1-7.49,1.56q-7.86,0-12.41-5.24a15.81,15.81,0,0,1-3.81-10.67A14.85,14.85,0,0,1,219,68.39a15.92,15.92,0,0,1,11.56-4.49,17.08,17.08,0,0,1,7.58,1.66A14.75,14.75,0,0,1,243.7,70.22Z"></path><path class="cls-4" d="M249.28,64.66h3v30h-3Z"></path><path class="cls-4" d="M259.12,64.66h6a35.16,35.16,0,0,1,6.92.44,7.71,7.71,0,0,1,4.2,2.6,7.47,7.47,0,0,1,1.63,4.94,7.55,7.55,0,0,1-1.59,4.94,7.82,7.82,0,0,1-4.38,2.62,39.21,39.21,0,0,1-7.62.49h-2.14V94.62h-3Zm3,2.93V77.75l5.08.07a13.32,13.32,0,0,0,4.5-.56,4.71,4.71,0,0,0,2.24-1.81,5.06,5.06,0,0,0,.81-2.8,5,5,0,0,0-.81-2.75,4.48,4.48,0,0,0-2.15-1.78,13,13,0,0,0-4.37-.53Z"></path><path class="cls-4" d="M283.83,64.66h3V91.73h11.53v2.89H283.83Z"></path><path class="cls-4" d="M303.12,64.66h17.17v2.93H306.11V77h14.06v2.93H306.11V91.69h14.06v2.93H303.12Z"></path><path class="cls-4" d="M322.37,89l2.55-1.53q2.68,5,6.21,4.95a5.93,5.93,0,0,0,2.83-.7,5,5,0,0,0,2-1.89,4.86,4.86,0,0,0,.69-2.5,5,5,0,0,0-1-3,24.24,24.24,0,0,0-5.13-4.81,26,26,0,0,1-4.67-4.1,7.48,7.48,0,0,1-1.59-4.58,7.05,7.05,0,0,1,.94-3.57,6.77,6.77,0,0,1,2.64-2.53,7.58,7.58,0,0,1,3.7-.93,7.88,7.88,0,0,1,4,1.05,13.61,13.61,0,0,1,3.9,3.86L337,70.67a11.71,11.71,0,0,0-2.89-3,5,5,0,0,0-2.59-.71,4.1,4.1,0,0,0-3,1.1,3.58,3.58,0,0,0-1.15,2.71,4.63,4.63,0,0,0,.41,1.89,6.94,6.94,0,0,0,1.48,2q.6.57,3.88,3a21.71,21.71,0,0,1,5.33,5.12,8.18,8.18,0,0,1,1.45,4.5A7.64,7.64,0,0,1,337.43,93a8.32,8.32,0,0,1-6,2.41,8.84,8.84,0,0,1-5-1.46A13.34,13.34,0,0,1,322.37,89Z"></path></g></g></svg> 