<svg width="123" height="38" viewBox="0 0 123 38" fill="none" xmlns="http://www.w3.org/2000/svg">
<path d="M46.2253 0.498932H44.25V11.5029H46.2253V0.498932Z" fill="#022E3D"/>
<path d="M48.4219 0.498932H50.5256L53.9476 5.70144L57.3674 0.498932H59.4733V11.5029H57.498V3.61122L53.9476 8.79907H53.8834L50.3651 3.64264V11.5029H48.4219V0.498932Z" fill="#022E3D"/>
<path d="M65.8363 6.22085C67.33 6.22085 68.261 5.40403 68.261 4.2563V4.22488C68.261 2.93682 67.3129 2.26033 65.8363 2.26033H63.5399V6.22085H65.8363ZM61.5625 0.498932H65.9968C68.6141 0.498932 70.2684 1.96083 70.2684 4.17671V4.20813C70.2684 6.67534 68.2439 7.96549 65.7699 7.96549H63.5378V11.5029H61.5625V0.498932Z" fill="#022E3D"/>
<path d="M77.1712 7.1319L75.228 2.72946L73.2998 7.1319H77.1712ZM74.3442 0.421417H76.1761L81.124 11.5029H79.0352L77.8946 8.84512H72.5786L71.423 11.5029H69.3984L74.3463 0.421417H74.3442Z" fill="#022E3D"/>
<path d="M81.0625 6.03235V6.00093C81.0625 2.87188 83.4551 0.310425 86.8621 0.310425C88.9337 0.310425 90.1878 1.01833 91.2622 2.02365L89.9931 3.45413C89.0942 2.63731 88.1291 2.08648 86.845 2.08648C84.6921 2.08648 83.1341 3.81646 83.1341 5.96951V6.00093C83.1341 8.15398 84.6921 9.91538 86.845 9.91538C88.2254 9.91538 89.1092 9.36455 90.0744 8.4849L91.3435 9.74364C90.1707 10.9374 88.8867 11.6914 86.7808 11.6914C83.5043 11.6914 81.0625 9.19281 81.0625 6.03235Z" fill="#022E3D"/>
<path d="M95.3722 2.29174H91.8047V0.498932H100.93V2.29174H97.3625V11.5029H95.3722V2.29174Z" fill="#022E3D"/>
<path d="M44.1328 13.3586V24.3626H46.1081V19.8827H51.7793V18.1213H46.1081V15.12H52.5027V13.3586H44.1328Z" fill="#022E3D"/>
<path d="M53.6875 19.6942V13.3586H55.6628V19.6146C55.6628 21.6587 56.7393 22.7583 58.507 22.7583C60.2747 22.7583 61.334 21.7216 61.334 19.6921V13.3565H63.3093V19.5978C63.3093 22.884 61.4132 24.5344 58.4749 24.5344C55.5365 24.5344 53.6875 22.884 53.6875 19.6921" fill="#022E3D"/>
<path d="M65.2188 13.3586H67.0507L73.075 20.9676V13.3586H75.0182V24.3626H73.3639L67.1641 16.5337V24.3626H65.2188V13.3586Z" fill="#022E3D"/>
<path d="M81.3018 22.6012C83.6623 22.6012 85.2053 21.0451 85.2053 18.892V18.8606C85.2053 16.7075 83.6623 15.12 81.3018 15.12H79.0847V22.6033H81.3018V22.6012ZM77.1094 13.3586H81.3018C84.8351 13.3586 87.2769 15.7315 87.2769 18.8292V18.8606C87.2769 21.9582 84.8351 24.3626 81.3018 24.3626H77.1094V13.3586Z" fill="#022E3D"/>
<path d="M48.3252 35.4378C50.6858 35.4378 52.2288 33.8817 52.2288 31.7286V31.6972C52.2288 29.5442 50.6858 27.9566 48.3252 27.9566H46.1081V35.4399H48.3252V35.4378ZM44.1328 26.1931H48.3252C51.8585 26.1931 54.3004 28.5661 54.3004 31.6637V31.6951C54.3004 34.7928 51.8585 37.1971 48.3252 37.1971H44.1328V26.1931Z" fill="#022E3D"/>
<path d="M55.5703 26.1952V37.1971H63.9873V35.4692H57.5456V32.514H63.1847V30.784H57.5456V27.9231H63.9059V26.1952H55.5703Z" fill="#022E3D"/>
<path d="M73.1766 26.1952V33.8021L67.1522 26.1952H65.3203V37.1971H67.2657V29.3703L73.4655 37.1971H75.1198V26.1952H73.1766Z" fill="#022E3D"/>
<path d="M86.1508 26.1952L82.7288 31.3977L79.3068 26.1952H77.2031V37.1971H79.1485V29.3389L82.6646 34.4953H82.7288L86.2792 29.3075V37.1971H88.2545V26.1952H86.1508Z" fill="#022E3D"/>
<path d="M95.2067 28.4257L97.1499 32.8282H93.2785L95.2067 28.4257ZM94.3229 26.1156L89.375 37.1971H91.3995L92.5552 34.5414H97.8711L99.0118 37.1971H101.101L96.1527 26.1156H94.3207H94.3229Z" fill="#022E3D"/>
<path d="M107.095 31.6491C108.508 31.6491 109.409 30.9265 109.409 29.8102V29.7788C109.409 28.5996 108.542 27.9545 107.08 27.9545H104.206V31.6491H107.097H107.095ZM102.227 26.1931H107.239C108.653 26.1931 109.76 26.6015 110.483 27.2927C111.078 27.8896 111.414 28.7064 111.414 29.6657V29.6971C111.414 31.5045 110.305 32.5895 108.73 33.0293L111.767 37.1951H109.439L106.676 33.3602H104.202V37.1951H102.227V26.191V26.1931Z" fill="#022E3D"/>
<path d="M120.365 26.1952L115.014 31.7286V26.1952H113.039V37.1971H115.014V34.0073L116.767 32.2459L120.604 37.1971H122.999L118.115 30.9265L122.789 26.1952H120.365Z" fill="#022E3D"/>
<path d="M36.0232 21.3718C36.0232 21.3718 36.021 21.3718 36.0189 21.3718C35.9761 21.3613 35.9312 21.3529 35.8884 21.3425C34.6257 21.0807 31.3728 20.9487 26.9663 22.0127C26.7866 22.0566 26.6025 22.1048 26.4163 22.153C25.1173 22.5467 23.4951 23.085 21.7146 23.818C18.5151 25.1857 15.3007 26.9911 13.197 28.6666C11.3394 30.2081 10.3486 31.6553 9.83066 33.0334C9.00245 35.2388 11.4957 37.8548 19.4482 37.9972C28.184 38.1522 33.9708 31.848 33.7825 30.9202C33.3545 28.8258 26.2023 29.7955 21.477 32.1203C18.834 33.4209 14.9326 33.9194 14.1579 33.1759C13.5309 32.5748 13.028 30.5809 18.8105 28.1179C29.4874 23.5709 35.1714 28.1598 35.8391 28.3378C36.5068 28.5158 38.4821 23.8411 38.4821 23.2526C38.4821 22.3122 37.4742 21.7027 36.0253 21.3718H36.0232Z" fill="#E31836"/>
<path d="M39.4176 15.8991C39.4112 15.6604 39.4005 15.4656 39.3941 15.3441C39.1929 12.0538 36.2653 12.5208 34.3884 12.7282C32.5116 12.9355 26.5407 14.5545 18.6609 19.7403C8.87431 26.1806 7.27995 27.2424 5.88247 24.9281C5.25114 23.8809 5.3025 22.1844 13.1481 19.1098C16.5101 17.7925 20.8888 15.5787 24.0989 14.2822C29.7765 11.9889 34.1509 9.78135 31.7347 8.69226C27.7178 6.8806 21.8539 11.2118 18.8193 13.5827C17.1158 14.9147 15.8275 15.941 13.7922 17.0154C12.3177 17.7946 10.4879 18.7014 7.64162 19.2669C5.5422 19.6837 4.04842 20.3581 3.02759 21.1686C2.01747 21.8996 0.95813 23.0913 0.96883 24.6391C0.979531 26.1868 2.05814 28.0907 2.70016 28.9473C3.70386 30.2898 4.55134 31.3391 5.42235 31.5255C5.86963 31.6302 6.43461 31.4962 7.01886 30.8406C8.56186 29.1106 11.1428 26.589 13.5097 25.104C16.9189 22.9636 22.9176 19.8115 27.3454 18.7433C31.7711 17.6752 35.3793 17.8385 36.6205 18.1422C38.1464 18.515 38.5637 18.7685 38.782 18.7705C39.0196 18.8041 39.2657 18.7412 39.3085 18.5108C39.4112 17.9642 39.4347 17.1579 39.4305 16.4772C39.4305 16.2761 39.4305 16.0792 39.4198 15.897L39.4176 15.8991Z" fill="#E31836"/>
<path d="M9.04735 16.6866C11.6775 15.4781 14.6736 13.3691 17.9972 10.2819C24.8669 3.90024 30.2556 4.74847 32.5583 5.47733C34.8611 6.20618 35.2185 6.9497 35.3726 6.29205C35.4731 5.85851 33.4615 3.39968 31.3941 2.1912C29.727 1.21521 27.4393 0.779572 25.6544 1.09373C21.6953 1.79117 16.3472 6.89105 13.8583 10.0997C11.0098 13.7712 7.46369 15.8195 6.04695 13.5387C4.19791 10.5625 6.89228 8.00737 12.5785 5.226C18.3075 2.42368 17.5456 1.3681 17.1369 0.802609C16.7238 0.23293 13.3575 -1.48448 7.13197 2.98498C3.76134 5.40402 1.30666 9.25145 0.476305 12.4056C-0.0266156 13.9136 -0.13576 15.5158 0.170272 16.7641C0.61541 18.5841 4.69013 18.7056 9.04735 16.6824V16.6866Z" fill="#E31836"/>
</svg>
