<?xml version="1.0" encoding="UTF-8" standalone="no"?><svg xmlns="http://www.w3.org/2000/svg" xmlns:xlink="http://www.w3.org/1999/xlink" contentScriptType="text/ecmascript" fill="#000000" width="456" zoomAndPan="magnify" contentStyleType="text/css" viewBox="28.2 16.0 455.5 480.0" height="480" preserveAspectRatio="xMidYMid meet" version="1"><g id="change1_1"><path fill="#002060" clip-rule="evenodd" d="M391.1541748,414.8754578c-35.2635803,51.5040894-93.7269897,81.6907959-155.0508881,81.1161804 C129.3026886,494.991333,48.7686882,406.7689514,51.3410873,305.197052 c0.9752007-38.4992981,13.5241013-74.1858063,34.7638016-103.780304 c-23.5133018-13.2367096-28.0978012-45.3521118-8.8886032-64.5608063 c20.3486023-20.3479004,54.6156998-13.770401,66.2488022,12.2556 c26.3740997-15.453598,56.8917084-24.6016006,89.4815979-25.3742981c0.3549042-3.0867004,0.9028015-6.1753006,1.6166077-9.2517014 c-0.1060028-0.1652985-0.2030029-0.3381958-0.2902985-0.5194016c-11.197403-23.196701-15.0511017-44.3592987,0.6011963-66.5236969 c7.403595-10.4836998,19.9320984-18.7220001,33.8229828-24.1174011 c14.9491272-5.8064995,31.6401062-8.3794994,45.2112122-6.9267998c3.8268127,0.3631001,5.6947937,4.6072006,3.6278076,7.6261005 c-24.5372925,35.842598-4.6069031,87.7605972-73.4015045,92.4311981c-0.5727997,2.4360962-1.0270081,4.8735962-1.346405,7.302597 c60.1069183,1.697403,115.1407013,32.1619034,148.8658905,81.8033981l8.6485291,14.0729065v-5.2299957 c0-15.8255005,12.9307861-28.756012,28.7566833-28.756012c15.8255005,0,28.7562866,12.9302063,28.7562866,28.756012v114.5335999 c29.9415283,18.5465088,34.9135132,60.1903076,9.9182129,85.1853943 C446.6716003,435.1859436,412.6308899,435.528656,391.1541748,414.8754578L391.1541748,414.8754578z M148.5648956,130.251236 l12.6719971-12.6716919c4.5592957-4.5593033-2.3668976-11.4853973-6.9261017-6.9259033l-12.6717072,12.6716995 C137.079483,127.8845444,144.0056915,134.8107452,148.5648956,130.251236L148.5648956,130.251236z M63.6859894,201.2781372 l-12.6716995,12.6717072c-4.5592003,4.5592041,2.3668976,11.4853973,6.9261971,6.9261017l12.6717033-12.6719971 C75.1716919,203.6447449,68.245491,196.7185364,63.6859894,201.2781372L63.6859894,201.2781372z M51.0043869,160.8665466 H33.0836868c-6.4487972,0-6.4487972,9.7964935,0,9.7964935h17.9207001 C57.4531898,170.6630402,57.4531898,160.8665466,51.0043869,160.8665466L51.0043869,160.8665466z M70.6121902,123.3253403 l-12.6717033-12.6716995c-4.5592995-4.559494-11.4853973,2.3666-6.9261971,6.9259033l12.6716995,12.6716919 C68.245491,134.8107452,75.1716919,127.8845444,70.6121902,123.3253403L70.6121902,123.3253403z M111.0234909,110.6437454 V92.7230453c0-6.4485016-9.7963028-6.4485016-9.7963028,0v17.9207001 C101.2271881,117.0925446,111.0234909,117.0925446,111.0234909,110.6437454L111.0234909,110.6437454z M92.0970917,193.5165405 c12.1815948-15.2059021,26.6735001-28.4252014,42.9609985-39.1705017 c-8.1725006-20.7077026-35.0494995-26.4296951-50.9156036-10.5641937 C69.1460876,158.778244,73.2792892,183.9893494,92.0970917,193.5165405L92.0970917,193.5165405z M238.9668884,100.3522415 c9.0574951-23.3976974,26.3421021-45.9475975,39.2637939-59.4047966c4.4490051-4.633503,11.5010071,2.1287994,7.0410156,6.7733994 c-12.7167969,13.2430992-29.9251099,35.8252983-38.128006,58.6603966 c51.9452057-5.5584946,39.2667084-45.5167961,57.9219818-80.6050949 c-21.0536804,0.2819996-50.0149841,10.0464993-62.1934814,27.2918987 C231.7268829,68.8502426,232.442688,83.5643463,238.9668884,100.3522415L238.9668884,100.3522415z M424.161377,343.6856384 c-25.8034973,3.9472046-36.4855957,35.8251038-17.8242798,54.4855042c12.5503845,12.5501099,32.894104,12.5501099,45.4444885,0 c18.6610107-18.6607056,7.9783936-50.5382996-17.8240051-54.4855042V211.738739c0-6.4487915-9.7962036-6.4487915-9.7962036,0 V343.6856384L424.161377,343.6856384z M444.8553772,359.6531372 c-14.0343018-14.0343018-38.1346741-4.0462036-38.1346741,15.7961121c0,19.8415833,24.0995789,29.8306885,38.1346741,15.7958069 C453.5784912,382.5225525,453.5787964,368.3756409,444.8553772,359.6531372L444.8553772,359.6531372z M400.3027039,245.1416473 c-11.7249146,3.8851929-22.4487,8.8554993-31.380127,17.8541107 c-11.2857971,11.3713989-10.2786865,21.9134827-9.3888855,40.3561707 c0.5513916,11.4203186,1.3603821,28.7278137-0.374115,39.4827271c-1.8025818,11.1758728-6.5488892,17.3930969-17.447876,19.6987915 c-14.7336121,3.1166992-37.5366211-0.4212036-49.6071167-10.7167053 c-14.8024902-12.6254883-10.5575867-30.0296021-7.3688965-48.7221069 c1.388916-8.1410828,5.7792053-33.9591064,1.4771118-40.1377869c-6.0055237-8.6247101-46.0979156-5.4880981-56.5486145-4.5479126 c-12.5569916,1.1302185-22.389801,2.0155029-28.3943939-3.282486c-7.6246033-6.7269135-5.6883087-21.0348053-4.1221008-30.2751007 c1.8354034-10.8303986,4.2342987-18.2041016,10.7438049-27.8890076 c12.9659882-19.2911987,34.1172943-37.6358948,54.5070953-50.3191986c4.7846069-2.9761047,9.8045044-5.8466949,15.060791-8.6094055 c-81.135498-18.8027954-162.9509888,21.4916992-198.6085815,94.5703125 c15.7214966,17.9299927,22.5839005,21.3017883,47.1066971,27.8376007 c8.2263947,2.1925964,15.896698,4.2373047,22.0173035,7.6705933c13.7834015,7.7320862,19.8672028,23.1505127,15.2454987,37.4368896 c-6.5890961,20.3680115-32.1706085,28.8323059-39.4387054,51.0196228 c-2.4029007,7.3367004-2.9091949,16.911499,0.8843994,23.6562805 c6.6988983,11.9092102,27.3014069,14.9819031,23.2044983,40.0805054 c-1.3453979,8.243103-4.9850922,16.7858887-4.6938934,25.6716003c0.1544952,4.7101135,1.4898987,9.9273071,2.6138,14.5700989 c21.6360016,13.1845093,46.3343048,21.8421021,72.7787018,24.6554871 c-2.8851013-7.7867737-4.335907-14.7851868-1.8379974-21.8618774 c6.5814972-18.6480103,29.2135925-14.0527954,38.6443939-19.9978943 c7.3026123-4.6035156,6.8652954-17.3052063,11.2648926-25.1504211c4.7857056-8.5336914,15.2424927-11.7299805,25.8044128-12.477478 c15.138092-1.0715027,24.5904846,3.0967712,37.7562866,9.8817749c10.1925049,5.2528992,15.7962952,7.9024963,27.2355957,9.0020142 c4.4302063,0.4255066,8.9349976,0.5136108,13.4790039,0.5300903c4.9022217-5.67099,9.4501038-11.6575012,13.6074219-17.9255066 c-18.3773193-25.7247009-11.0976257-61.6168823,15.7796021-78.2653809V245.1416473L400.3027039,245.1416473z M467.7068787,352.5645447c-4.0517883-6.8298035-9.8515015-12.4894104-16.7750854-16.3562012 c-1.7155151-0.762207-2.9122925-2.4805908-2.9122925-4.4786987V214.4044495 c0-16.6339111-20.3086243-25.4253082-32.3470154-13.3866119c-3.4385071,3.4385071-5.5732117,8.178009-5.5732117,13.3866119 v117.3251953h-0.0172729c-0.001709,1.7276917-0.922699,3.4016113-2.5467224,4.2860107 c-14.2910767,7.7984009-23.3743896,22.8448792-23.3743896,39.4335938c0,24.7962952,20.1018066,44.8981934,44.8984985,44.8981934 C463.9555969,420.3474426,485.3103943,382.2367554,467.7068787,352.5645447L467.7068787,352.5645447z M71.5402908,249.8727417 c-22.5876007,62.3848877-8.0983009,133.1369934,38.3022995,181.71521l5.1093979,5.1371765L71.5402908,249.8727417 L71.5402908,249.8727417z M115.527092,437.2787476c5.8097,5.5601807,12.0500946,10.7618103,18.5672989,15.4815063 c-3.2131042-19.3796997,6.8041992-31.3203125,4.0710907-42.7420044 c-3.210495-13.4154968-24.8138962-14.2801208-25.9914932-39.8952942 c-0.8191986-17.8206177,8.2819977-31.3081055,20.8743973-43.1744995 c7.5046997-7.0722046,17.8152008-14.9307251,20.8731995-24.3839111 c3.2292023-9.9825134-1.0820007-20.5069885-10.7303009-25.9189148 c-12.2923889-6.8952942-34.9661942-7.868988-52.4343948-19.5144958 c-6.0443039-4.0294952-11.4292984-9.3795929-16.3066025-14.7494965c-1.0252991,2.4715118-1.9958954,4.969101-2.909996,7.4911041 L115.527092,437.2787476L115.527092,437.2787476z M307.0391846,147.730545l-5.2902832-2.1730957 c-3.360199-1.3153076-6.770813-2.5296021-10.2280273-3.6411133c-8.4803772,4.0249023-16.4646912,8.3707123-23.9560852,13.0309143 c-19.144104,11.9080963-39.4264984,29.3946991-51.5610962,47.4490967 c-5.7158051,8.5047913-7.58461,14.4546967-9.2129059,24.0621948c-0.8302002,4.8968048-2.8990021,17.9671021,0.9457092,21.3591003 c3.7838898,3.3386078,19.9612885,0.8583069,28.8917999,0.2006073c12.7266998-0.9377136,32.9697876-1.3903046,44.7706909,1.5593872 c11.991394,2.9972992,15.9522095,9.5560913,16.3636169,20.8871155c0.4015808,11.058197-2.0030212,26.2776794-3.9703064,37.6781006 c-1.796814,10.4082031-3.537323,20.4864807-1.3087158,27.5437012 c5.1582031,16.3345947,33.7487183,20.1329956,47.2382202,17.2799988c6.6421814-1.4049072,8.6345825-4.4683228,9.7945862-11.662323 c1.6288147-10.099884,0.7471924-27.4144897,0.2139893-38.4352722 c-0.9796753-20.2515259-1.3688965-33.0222168,12.2664185-46.7609253 c10.1201782-10.1972961,22.3114929-15.9768829,35.5415955-20.361496 C379.271698,196.3452454,346.8982849,164.8713379,307.0391846,147.730545L307.0391846,147.730545z M229.5583954,486.0276489 c49.175705,2.1784058,97.011795-15.9805908,132.445694-51.3272095 c-15.5205078-0.7157898-22.6318054-3.3829041-36.280304-10.4168091 c-11.5412903-5.9476929-19.5672913-9.7327881-32.5904846-8.8108826 c-6.8720093,0.4866943-14.9936218,2.2146912-17.9595032,7.5032959c-1.1105957,1.9802856-1.7906189,4.6113892-2.5344238,7.5250854 l-0.0028992-0.0007935c-1.7294006,7.326416-4.2555847,16.1906128-12.0565796,21.1083984 c-12.1388092,7.6522217-30.316803,2.7720032-34.6269073,14.9848022 c-1.8484039,5.2382202,0.4866943,12.7171021,3.0881042,18.3637085 C229.2040863,485.3110352,229.3761902,485.6681519,229.5583954,486.0276489z" fill-rule="evenodd"/></g></svg>