<?xml version="1.0" standalone="no"?>
<!DOCTYPE svg PUBLIC "-//W3C//DTD SVG 20010904//EN"
 "http://www.w3.org/TR/2001/REC-SVG-20010904/DTD/svg10.dtd">
<svg version="1.0" xmlns="http://www.w3.org/2000/svg"
 width="81.000000pt" height="81.000000pt" viewBox="0 0 81.000000 81.000000"
 preserveAspectRatio="xMidYMid meet">

<g transform="translate(0.000000,81.000000) scale(0.100000,-0.100000)"
fill="#002060" stroke="none">
<path d="M202 794 c-17 -12 -22 -25 -22 -59 0 -36 -6 -49 -35 -78 -27 -27 -35
-43 -35 -71 l0 -36 74 0 c58 0 75 -3 80 -16 8 -21 81 -16 81 6 0 9 -11 16 -27
18 -25 3 -26 5 -16 33 18 53 80 79 91 38 6 -23 27 -17 27 7 0 38 72 2 88 -45
10 -28 9 -30 -16 -33 -16 -2 -27 -9 -27 -18 0 -22 73 -27 81 -6 5 13 22 16 80
16 l74 0 0 36 c0 28 -8 44 -34 70 -28 28 -36 44 -38 82 -2 39 -8 49 -30 62
-25 13 -31 13 -55 0 -24 -14 -28 -23 -31 -68 -2 -29 -7 -53 -13 -53 -31 -6
-33 -3 -30 43 3 54 -22 88 -64 88 -42 0 -67 -34 -64 -88 3 -46 1 -48 -31 -43
-5 0 -10 23 -10 50 0 40 -4 53 -22 65 -12 9 -29 16 -38 16 -9 0 -26 -7 -38
-16z m56 -23 c8 -5 12 -21 10 -37 -2 -23 -8 -29 -28 -29 -20 0 -26 6 -28 29
-3 25 10 46 28 46 3 0 11 -4 18 -9z m171 -5 c17 -20 10 -67 -11 -79 -23 -15
-48 8 -48 42 0 45 35 66 59 37z m159 5 c8 -5 12 -21 10 -37 -2 -23 -8 -29 -28
-29 -20 0 -26 6 -28 29 -3 25 10 46 28 46 3 0 11 -4 18 -9z m-359 -128 c10
-17 12 -17 26 1 8 10 21 16 29 13 14 -5 13 -11 -5 -42 -20 -34 -23 -35 -80
-35 -67 0 -76 14 -34 55 28 29 50 32 64 8z m327 0 c13 -17 15 -17 25 0 14 24
36 21 64 -8 42 -41 33 -55 -34 -55 -57 0 -60 1 -79 34 -11 19 -18 37 -15 40
11 11 26 6 39 -11z"/>
<path d="M0 406 l0 -154 65 -22 c38 -13 76 -19 90 -16 18 5 23 3 19 -8 -7 -19
177 -206 203 -206 11 0 32 13 48 30 16 16 35 30 43 30 17 0 152 134 152 151 0
7 11 8 30 4 20 -4 53 1 95 15 l65 22 0 154 c0 117 -3 154 -12 154 -25 0 -208
-101 -208 -115 0 -11 -8 -11 -52 1 -60 16 -107 18 -127 5 -7 -5 -28 -4 -47 2
-26 8 -48 7 -85 -2 -43 -11 -52 -11 -62 2 -13 16 -186 107 -205 107 -9 0 -12
-41 -12 -154z m178 39 c4 -4 -27 -151 -39 -182 -8 -21 -9 -21 -58 -5 l-51 16
0 123 0 123 73 -36 c39 -20 74 -38 75 -39z m602 -48 l0 -123 -51 -16 c-49 -16
-50 -16 -58 5 -12 31 -43 178 -39 182 3 3 141 74 146 75 1 0 2 -55 2 -123z
m-426 26 c4 -4 -3 -15 -15 -24 -24 -18 -29 -60 -9 -84 16 -19 50 -19 101 1
l41 17 54 -54 c50 -49 69 -89 43 -89 -5 0 -34 23 -64 51 -68 64 -87 47 -21
-20 45 -45 59 -81 33 -81 -7 0 -35 22 -62 50 -33 33 -52 47 -59 40 -7 -7 6
-26 37 -58 45 -46 60 -82 35 -82 -7 0 -57 43 -111 95 -53 52 -103 95 -109 95
-6 0 -19 -7 -29 -16 -10 -9 -25 -14 -32 -11 -13 5 -12 15 1 74 9 37 17 70 19
72 3 5 103 29 124 30 9 1 19 -2 23 -6z m185 -11 l65 -17 17 -67 c9 -37 14 -70
11 -73 -14 -14 -37 0 -90 56 l-57 61 -54 -22 c-88 -34 -113 -3 -39 50 47 34
58 35 147 12z m-269 -183 c0 -5 -9 -18 -20 -29 -34 -34 -56 -4 -24 31 15 17
44 16 44 -2z m50 -49 c0 -16 -40 -51 -50 -45 -14 8 -12 29 2 43 15 15 48 16
48 2z m50 -53 c0 -19 -37 -50 -49 -42 -25 15 -2 55 31 55 10 0 18 -6 18 -13z
m50 -50 c0 -19 -37 -50 -49 -42 -25 15 -2 55 31 55 10 0 18 -6 18 -13z"/>
<path d="M395 550 c-4 -6 -3 -16 3 -22 6 -6 12 -6 17 2 4 6 3 16 -3 22 -6 6
-12 6 -17 -2z"/>
</g>
</svg>
