<?xml version="1.0" standalone="no"?>
<!DOCTYPE svg PUBLIC "-//W3C//DTD SVG 20010904//EN"
 "http://www.w3.org/TR/2001/REC-SVG-20010904/DTD/svg10.dtd">
<svg version="1.0" xmlns="http://www.w3.org/2000/svg"
 width="81.000000pt" height="81.000000pt" viewBox="0 0 81.000000 81.000000"
 preserveAspectRatio="xMidYMid meet">

<g transform="translate(0.000000,81.000000) scale(0.100000,-0.100000)"
fill="#002060" stroke="none">
<path d="M306 771 c-9 -9 -33 -20 -54 -26 -26 -7 -42 -20 -53 -43 -9 -18 -28
-41 -43 -53 -19 -15 -26 -30 -26 -54 0 -19 -8 -50 -17 -70 -16 -33 -16 -37 0
-70 9 -20 17 -51 17 -70 0 -27 7 -39 30 -57 17 -12 30 -28 30 -35 0 -22 47
-63 73 -63 13 0 32 -9 41 -19 25 -28 177 -28 202 0 9 10 28 19 41 19 26 0 73
41 73 63 0 7 14 23 30 35 23 18 30 30 30 57 0 19 8 50 17 70 16 33 16 37 0 70
-9 20 -17 51 -17 70 0 24 -7 39 -26 54 -15 12 -34 35 -43 53 -11 23 -27 36
-52 43 -21 5 -45 17 -55 26 -27 23 -176 23 -198 0z m211 -114 c163 -113 85
-367 -112 -367 -182 0 -269 223 -137 348 43 40 81 53 148 49 48 -2 71 -9 101
-30z"/>
<path d="M334 641 c-63 -29 -89 -72 -89 -151 0 -53 5 -71 24 -99 27 -37 91
-71 136 -71 45 0 109 34 136 71 34 49 34 149 0 198 -27 37 -91 71 -136 71 -16
0 -48 -9 -71 -19z m127 -150 c-48 -74 -54 -77 -92 -43 -23 21 -30 34 -25 47 6
17 8 16 31 -5 15 -14 29 -20 33 -14 5 5 21 26 36 47 19 27 32 35 39 28 7 -7 0
-26 -22 -60z"/>
<path d="M129 175 c-39 -74 -34 -90 31 -87 37 3 40 0 54 -33 23 -54 50 -45 98
32 l38 63 -24 6 c-14 3 -32 14 -42 25 -9 10 -27 19 -39 19 -12 0 -34 9 -48 20
-14 11 -27 20 -29 20 -2 0 -20 -29 -39 -65z"/>
<path d="M611 220 c-13 -11 -33 -20 -46 -20 -12 0 -30 -9 -39 -19 -10 -11 -28
-22 -42 -25 l-24 -6 38 -63 c48 -77 75 -86 98 -32 14 33 17 36 54 33 65 -3 70
13 31 87 -19 36 -37 65 -40 65 -4 -1 -17 -10 -30 -20z"/>
</g>
</svg>
