<?xml version="1.0" encoding="UTF-8" standalone="no"?><svg xmlns="http://www.w3.org/2000/svg" xmlns:xlink="http://www.w3.org/1999/xlink" contentScriptType="text/ecmascript" fill="#000000" width="511" zoomAndPan="magnify" contentStyleType="text/css" viewBox="0.5 14.3 511.0 483.5" height="483" preserveAspectRatio="xMidYMid meet" version="1"><g id="change1_1"><path fill="#002060" d="M504.514,121.97h-45.295c-1.853,0-3.63,0.736-4.94,2.046l-53.419,53.419 c-10.251-8.928-22.205-15.585-35.231-19.603V21.25c0-3.859-3.128-6.986-6.986-6.986H81.837c-0.234,0-0.467,0.012-0.697,0.035 c-0.173,0.017-0.342,0.047-0.511,0.076c-0.055,0.01-0.111,0.014-0.166,0.025c-0.201,0.04-0.398,0.092-0.593,0.149 c-0.022,0.007-0.045,0.011-0.068,0.017c-0.198,0.06-0.391,0.131-0.58,0.208c-0.02,0.008-0.042,0.014-0.062,0.023 c-0.18,0.075-0.354,0.159-0.525,0.248c-0.031,0.016-0.063,0.029-0.094,0.045c-0.159,0.085-0.312,0.18-0.463,0.277 c-0.041,0.026-0.084,0.048-0.124,0.075c-0.145,0.098-0.284,0.204-0.421,0.312c-0.042,0.033-0.087,0.062-0.128,0.096 c-0.177,0.146-0.347,0.299-0.509,0.462L2.549,90.658c-0.162,0.162-0.316,0.332-0.462,0.509c-0.034,0.041-0.063,0.086-0.096,0.128 c-0.108,0.137-0.214,0.276-0.312,0.421c-0.027,0.04-0.049,0.083-0.075,0.124c-0.097,0.151-0.192,0.304-0.277,0.463 c-0.016,0.031-0.029,0.063-0.045,0.094c-0.089,0.172-0.174,0.346-0.248,0.525c-0.008,0.02-0.014,0.041-0.023,0.062 c-0.077,0.19-0.148,0.383-0.208,0.58c-0.007,0.022-0.011,0.045-0.017,0.068c-0.057,0.195-0.109,0.392-0.149,0.593 c-0.011,0.055-0.016,0.111-0.025,0.166c-0.03,0.169-0.059,0.338-0.076,0.511C0.512,95.134,0.5,95.367,0.5,95.601V490.75 c0,3.859,3.128,6.986,6.986,6.986h351.155c3.859,0,6.986-3.128,6.986-6.986V345.711c6.123-1.495,12.231,0.066,16.771,4.179 c-1.396,5.419-0.398,11.402,3.262,16.187l13.123,17.11c4.927,6.439,12.098,10.571,20.191,11.635c1.36,0.179,2.716,0.268,4.064,0.268 c6.67,0,13.11-2.166,18.47-6.272c6.439-4.927,10.571-12.098,11.635-20.191c1.064-8.087-1.069-16.091-6.007-22.539l-13.095-17.082 c-3.656-4.779-9.17-7.303-14.769-7.367c-2.954-5.751-2.721-12.453,0.82-18.185c10.368-16.779,15.409-36.107,14.578-55.895 c-0.85-20.248-7.838-39.485-20.209-55.63c-1.206-1.575-2.459-3.102-3.745-4.59l51.396-51.396h42.401 c3.859,0,6.986-3.128,6.986-6.986C511.5,125.098,508.372,121.97,504.514,121.97z M74.85,38.117v50.497H24.353L74.85,38.117z M14.473,483.763V102.587h67.364c3.859,0,6.986-3.128,6.986-6.986V28.237h262.832v126.369c-0.776-0.121-1.555-0.234-2.336-0.338 c-26.038-3.44-51.86,3.464-72.702,19.446c-10.615,8.14-19.105,18.038-25.383,28.976c-8.839-5.073-18.089-9.108-27.592-12.065 c0.251-9.372-0.142-18.21-1.193-26.493c7.628-15.373,13.273-24.798,19.665-31.688c5.695,5.987,13.213,9.736,21.465,10.373 c0.824,0.063,1.642,0.095,2.458,0.095c12.374,0,23.808-7.252,30.946-19.781c6.257-10.996,12.892-21.494,25.183-29.084 c2.035-1.257,3.286-3.467,3.315-5.859c0.029-2.391-1.167-4.632-3.17-5.938c-21.294-13.884-59.557-12.393-78.734,3.068 c-10.943,8.823-14.363,21.377-9.385,34.439c0.076,0.199,0.166,0.387,0.244,0.583c-5.882,5.674-10.955,12.638-16.515,22.411 c-1.414-4.592-3.09-8.959-5.019-13.104c0.163-0.183,0.332-0.358,0.492-0.544c9.112-10.58,10.165-23.532,2.89-35.537 c-12.763-21.06-48.244-35.489-73.008-29.693c-2.328,0.545-4.215,2.242-5.003,4.5c-0.788,2.257-0.367,4.76,1.116,6.636 c9.001,11.385,11.672,23.503,13.816,35.952c2.61,15.147,11.851,26.311,24.72,29.865c2.842,0.785,5.729,1.167,8.604,1.167 c5.189,0,10.331-1.257,15.081-3.632c3.122,7.393,5.342,15.62,6.667,24.717c0.013,0.521,0.085,1.037,0.212,1.538 c0.931,6.987,1.348,14.475,1.253,22.479c-31.525-6.28-64.772-1.332-93.848,15.045c-31.865,17.937-54.838,47.215-64.687,82.441 c-9.849,35.224-5.393,72.172,12.546,104.041c17.952,31.867,47.233,54.838,82.45,64.682c12.24,3.421,24.683,5.114,37.055,5.114 c23.226,0,46.184-5.972,66.974-17.683c35.192-19.812,59.33-53.247,67.107-92.526c11.348,2.254,22.934,2.478,34.316,0.691v134.862 H14.473z M150.237,202.936c8.261,6.171,12.739,14.539,12.063,22.843c-0.615,7.562-5.284,13.759-12.817,17.004 c-5.562,2.404-9.267,7.221-10.169,13.252l-0.201,1.434c-1.092,7.925-1.55,11.245-12.069,11.725l-17.256-0.723 c-4.456-0.191-8.509,1.319-11.724,4.386c-3.198,3.05-4.915,7.002-4.965,11.46c-0.07,10.757,4.596,19.712,13.515,25.912 c4.862,3.354,9.706,4.782,14.477,4.782c16.756-0.001,32.58-17.624,44.868-31.31c3.424-3.812,6.657-7.414,9.647-10.404 c7.736-7.714,15.214-8.737,18.889-6.422c3.779,2.38,6.395,10.287,1.332,24.726c-1.45,4.111-3.006,7.516-4.511,10.809 c-4.007,8.767-7.792,17.047-6.53,32.728c1.477,18.449,10.597,32.358,28.692,43.767c5.941,3.757,7.951,7.416,7.306,9.226 c-0.842,2.361-6.285,5.348-15.291,4.245c-7.53-0.913-14.686-3.906-21.878-9.15c-5.856-4.268-12.842-5.333-19.631-3.015 c-7.809,2.617-9.315,1.826-17.672-2.562l-0.435-0.228c-2.411-1.262-4.618-2.952-6.953-4.741c-2.868-2.197-5.835-4.469-9.59-6.347 c-10.529-5.284-24.451-5.634-31.818,5.498c-4.086,6.167-7.774,18.862,13.43,34.592c4.343,3.223,6.655,7.058,6.035,10.009 c-0.427,2.032-2.452,3.809-5.57,4.989c-14.414-10.317-26.52-23.749-35.48-39.653c-16.107-28.614-20.108-61.792-11.264-93.422 c8.844-31.631,29.472-57.92,58.086-74.027C131.555,209.358,140.784,205.569,150.237,202.936z M119.27,395.199 c-4.128-3.062-13.376-10.718-10.105-15.656c3.026-4.571,10.415-2.472,13.909-0.719c2.574,1.287,4.894,3.065,7.351,4.947 c2.701,2.069,5.495,4.209,8.964,6.024l0.425,0.224c9.12,4.788,15.143,7.951,28.646,3.427c2.464-0.841,4.794-0.48,6.923,1.071 c9.041,6.592,18.605,10.539,28.422,11.73c14.534,1.769,26.644-3.623,30.139-13.422c1.195-3.351,3.791-15.111-13.006-25.735 c-14.259-8.99-21.113-19.189-22.225-33.07c-0.97-12.06,1.529-17.527,5.311-25.802c1.557-3.406,3.322-7.268,4.985-11.982 c6.606-18.841,3.964-34.237-7.068-41.185c-10.359-6.525-24.57-3.247-36.208,8.358c-3.263,3.263-6.618,7-10.171,10.956 c-16.541,18.423-30.065,31.914-40.993,24.376c-5.156-3.584-7.539-8.139-7.498-14.3c0.007-0.646,0.174-1.032,0.637-1.474 c0.457-0.436,0.812-0.569,1.478-0.537l17.569,0.736c0.192,0.009,0.383,0.009,0.574,0c22.473-0.905,24.447-15.231,25.627-23.791 l0.183-1.31c0.182-1.213,0.764-1.971,1.881-2.454c12.247-5.276,20.175-16.005,21.208-28.7c0.794-9.766-2.586-19.373-9.322-27.388 c15.674-2.092,31.622-1.122,46.98,2.866c0.523,0.207,1.078,0.35,1.657,0.426c10.236,2.811,20.187,6.988,29.604,12.494 c-12.364,31.121-8.566,67.796,13.229,96.246c11.718,15.293,27.381,26.633,45.44,32.957c-6.777,35.686-28.55,66.096-60.439,84.048 c-28.612,16.117-61.786,20.127-93.411,11.287c-8.924-2.494-17.424-5.929-25.39-10.215c3.132-2.801,5.231-6.303,6.077-10.328 C132.436,410.823,128.181,401.812,119.27,395.199z M205.328,116.379c-5.167-7.466-11.408-13.981-18.735-19.509 c-3.08-2.324-7.461-1.712-9.785,1.369c-2.324,3.08-1.711,7.461,1.369,9.785c6.703,5.057,12.318,11.04,16.872,17.976 c-4.269,2.044-8.963,2.584-13.403,1.357c-7.631-2.107-12.977-8.948-14.669-18.769c-1.792-10.402-4.081-21.287-9.885-32.02 c17.878,0.676,39.23,11.015,47.244,24.24C207.678,106.323,208.01,111.449,205.328,116.379z M252.348,96.197 c7.831-6.313,20.542-9.56,33.158-9.56c6.782,0,13.539,0.939,19.492,2.843c-9.08,8.098-14.933,17.56-20.157,26.738 c-4.935,8.661-12.294,13.281-20.186,12.668c-4.435-0.343-8.534-2.311-11.803-5.478c5.914-3.914,13.037-7.398,22.547-11.903 c3.487-1.652,4.975-5.818,3.323-9.305c-1.652-3.487-5.817-4.975-9.305-3.323c-9.464,4.483-16.918,8.253-23.204,12.277 C245.111,105.326,247.129,100.404,252.348,96.197z M436.046,354.587c2.671,3.487,3.824,7.826,3.246,12.219 c-0.577,4.385-2.805,8.262-6.275,10.917c-3.486,2.671-7.826,3.823-12.219,3.246c-4.385-0.577-8.262-2.805-10.92-6.279 l-13.123-17.109c-1.609-2.103-1.195-5.236,0.903-6.842c0.002-0.001,0.004-0.003,0.006-0.005l18.439-14.141 c0.866-0.663,1.906-0.982,2.943-0.982c1.482,0,2.956,0.653,3.903,1.89L436.046,354.587z M403.37,200.426 c21.177,27.639,23.121,66.091,4.836,95.683c-5.826,9.432-6.447,20.763-2.045,30.499l-15.545,11.921 c-8.26-6.778-19.367-9.121-29.987-5.946c-33.352,9.977-69.987-1.889-91.162-29.525c-28.274-36.908-21.253-89.957,15.652-118.255 c17.88-13.709,40.029-19.632,62.369-16.682c16.283,2.152,31.229,8.85,43.447,19.238l-7.459,7.459 c-25.922-21.426-64.17-23.008-91.977-1.697c-15.656,12-25.702,29.381-28.287,48.942c-2.585,19.56,2.6,38.955,14.6,54.612 c11.999,15.657,29.381,25.703,48.942,28.287c3.288,0.434,6.569,0.649,9.831,0.649c16.142,0,31.755-5.267,44.781-15.249 c32.323-24.773,38.463-71.227,13.687-103.554c-0.552-0.72-1.127-1.412-1.701-2.106l7.456-7.456 C401.684,198.283,402.54,199.342,403.37,200.426z M383.963,215.309c20.089,26.212,15.111,63.878-11.097,83.963 c-12.694,9.731-28.42,13.932-44.281,11.838c-15.86-2.096-29.953-10.241-39.681-22.935c-9.73-12.695-13.934-28.421-11.838-44.281 c2.096-15.86,10.24-29.953,22.935-39.681c22.18-17,52.561-16.045,73.552,0.53l-42.059,42.059c-2.729,2.728-2.729,7.152,0,9.88 c1.364,1.365,3.152,2.046,4.94,2.046c1.788,0,3.576-0.682,4.94-2.046l42.046-42.046 C383.599,214.863,383.787,215.078,383.963,215.309z M511.5,105.22c0,3.859-3.128,6.986-6.986,6.986h-45.295 c-3.859,0-6.986-3.128-6.986-6.986s3.128-6.986,6.986-6.986h45.295C508.372,98.233,511.5,101.361,511.5,105.22z M52.5,127.74 c0-3.859,3.128-6.986,6.986-6.986h66.429c3.859,0,6.986,3.128,6.986,6.986s-3.128,6.986-6.986,6.986H59.486 C55.628,134.726,52.5,131.599,52.5,127.74z M26.415,127.74c0-3.859,3.128-6.986,6.986-6.986h6.903c3.859,0,6.986,3.128,6.986,6.986 s-3.128,6.986-6.986,6.986h-6.903C29.543,134.726,26.415,131.599,26.415,127.74z M52.5,154.079c0-3.859,3.128-6.986,6.986-6.986 h66.429c3.859,0,6.986,3.128,6.986,6.986s-3.128,6.986-6.986,6.986H59.486C55.628,161.066,52.5,157.938,52.5,154.079z M47.291,154.079c0,3.859-3.128,6.986-6.986,6.986h-6.903c-3.859,0-6.986-3.128-6.986-6.986s3.128-6.986,6.986-6.986h6.903 C44.163,147.093,47.291,150.22,47.291,154.079z"/></g></svg>