<?xml version="1.0" standalone="no"?>
<!DOCTYPE svg PUBLIC "-//W3C//DTD SVG 20010904//EN"
 "http://www.w3.org/TR/2001/REC-SVG-20010904/DTD/svg10.dtd">
<svg version="1.0" xmlns="http://www.w3.org/2000/svg"
 width="99.000000pt" height="99.000000pt" viewBox="0 0 99.000000 99.000000"
 preserveAspectRatio="xMidYMid meet">

<g transform="translate(0.000000,99.000000) scale(0.100000,-0.100000)"
fill="#002060" stroke="none">
<path d="M246 969 c-20 -16 -26 -29 -26 -58 0 -99 137 -111 156 -14 5 27 1 37
-24 63 -36 35 -69 38 -106 9z"/>
<path d="M653 842 c-5 -4 -29 -146 -52 -317 -49 -364 -47 -351 -66 -359 -14
-5 -15 9 -9 112 l7 118 -67 43 -66 43 0 119 c0 73 4 119 10 119 6 0 10 -34 10
-83 0 -119 13 -128 108 -72 55 32 60 38 65 77 3 23 4 44 2 47 -2 2 -24 -8 -48
-22 l-45 -26 -4 56 c-6 72 -37 103 -102 103 -42 0 -43 -1 -55 -42 -10 -31 -15
-38 -22 -27 -5 8 -6 26 -3 42 5 23 2 27 -16 27 -18 0 -21 -4 -17 -22 3 -13 2
-32 -3 -43 -8 -21 -11 -17 -35 53 -6 16 -85 15 -106 -1 -34 -26 -39 -55 -39
-209 0 -151 5 -178 35 -178 35 1 40 18 46 172 4 112 6 62 7 -190 2 -327 3
-343 22 -362 24 -24 29 -24 58 -4 21 15 22 20 22 215 0 109 3 199 6 199 5 0
90 -50 131 -77 9 -6 9 -36 2 -117 -7 -83 -6 -112 3 -123 10 -12 7 -19 -14 -34
-63 -46 -73 -57 -62 -68 15 -16 426 -10 431 5 2 6 -38 42 -89 80 -51 37 -96
70 -100 73 -8 6 54 476 64 486 3 3 39 5 79 3 l74 -3 -30 -17 -30 -17 69 -1
c67 0 68 1 61 23 -10 28 -10 76 0 105 7 20 4 22 -29 22 -25 0 -36 4 -36 15 0
12 -14 15 -70 15 -63 0 -70 2 -70 19 0 23 -11 33 -27 23z"/>
</g>
</svg>
