<svg width="277" height="236" xmlns="http://www.w3.org/2000/svg" xmlns:xlink="http://www.w3.org/1999/xlink" xml:space="preserve" overflow="hidden"><g transform="translate(-5489 -355)"><path d="M211.61 42.3256C211.628 42.3164 211.647 42.3164 211.674 42.3164 205.986 37.7643 199.763 33.8586 193.124 30.6731 193.06 30.6454 192.995 30.6085 192.931 30.5808 192.57 30.4054 192.21 30.2484 191.85 30.073 179.247 24.2006 165.203 20.9135 150.383 20.9135 122.794 20.9135 97.8734 32.2797 80.0253 50.5802 79.9699 50.6448 79.9145 50.7002 79.8499 50.7649 79.3605 51.2727 78.8712 51.7898 78.3818 52.3068 78.2433 52.4546 78.0956 52.6023 77.9663 52.7593 77.5785 53.1655 77.2092 53.5903 76.8398 54.0058 76.6274 54.2551 76.4059 54.4951 76.1842 54.7352 75.9627 54.9937 75.7411 55.2615 75.5195 55.52 60.9123 72.6386 52.1037 94.8356 52.1037 119.11 52.1037 126.709 52.9716 134.114 54.6152 141.215 54.6521 141.399 54.6983 141.575 54.7352 141.75 54.8552 142.24 54.9753 142.738 55.0953 143.227 55.1876 143.588 55.28 143.948 55.3815 144.308 55.4462 144.566 55.52 144.825 55.5939 145.083 56.4711 148.315 57.5145 151.473 58.7055 154.557 62.8698 153.523 67.2002 152.719 71.6414 152.147 67.8465 143.163 65.5567 133.394 65.0765 123.145L65.0765 123.043C65.0396 122.416 65.0211 121.769 65.0119 121.123 65.0027 121.058 65.0027 121.012 65.0027 120.947 64.9935 120.329 64.9842 119.71 64.9842 119.092 64.9842 118.067 65.0119 117.042 65.0489 116.017 65.0581 115.758 65.0673 115.5 65.0858 115.241 65.1227 114.29 65.1781 113.339 65.252 112.388 65.2797 112.102 65.3074 111.816 65.3351 111.539 65.3997 110.772 65.4736 109.997 65.5659 109.23 65.6029 108.972 65.6305 108.713 65.6582 108.455 65.7783 107.467 65.9168 106.488 66.083 105.509 66.1199 105.269 66.1568 105.029 66.1938 104.78 66.2584 104.392 66.3323 104.004 66.4062 103.607 66.4154 103.57 66.4154 103.543 66.4246 103.515 66.5354 103.7 66.6462 103.847 66.7662 104.023 67.0432 104.401 67.745 104.78 68.1143 104.678 68.4929 104.568 68.8715 103.875 68.9084 103.413 68.9822 102.499 68.8345 101.567 68.7791 100.634 69.1207 100.569 69.0192 100.588 69.3608 100.523 70.1087 102.601 71.0321 104.632 71.5306 106.765 72.0662 109.018 73.1834 110.588 75.2979 111.474 76.8952 112.157 78.5018 112.822 80.1177 113.45 80.3023 113.524 80.4223 113.709 80.4223 113.912 80.3762 115.13 80.5055 116.358 80.7825 117.587L83.8479 148.361C83.9495 149.386 84.3004 150.337 84.8267 151.15 85.75 151.122 86.6825 151.113 87.6151 151.113 105.509 151.113 121.695 154.898 132.489 161.546 132.803 160.152 133.653 158.933 134.881 158.176 136.275 157.308 137.641 156.413 138.98 155.489 144.335 151.805 148.454 146.653 151.279 140.799 151.427 140.494 151.584 140.19 151.741 139.885 154.289 135.056 154.908 129.885 154.649 124.539 154.538 122.083 153.172 120.43 151.159 119.35 147.66 117.448 144.151 115.518 140.494 113.921 138.131 112.887 135.952 111.659 134.031 110.135 131.03 103.395 114.456 91.6686 114.456 91.6686 112.194 90.5882 109.674 91.133 107.282 91.7794 105.943 92.1487 104.863 92.0656 103.949 91.5208 103.69 91.3639 103.644 91.013 103.838 90.7914 104.115 90.459 104.383 90.1358 104.641 89.785 105.62 88.4646 106.507 87.0796 107.43 85.7223 107.753 85.2606 108.039 84.6974 108.464 84.3927 110.855 82.6845 113.228 80.8932 115.768 79.4344 117.42 78.4926 118.538 77.5693 118.205 75.5102 118.03 74.4484 118.482 73.7651 119.59 73.4789 121.363 73.0265 123.136 72.5463 125.075 72.0108 125.527 71.9 125.86 72.4078 125.573 72.7772 125.379 73.008 125.213 73.2388 125.112 73.4974 124.955 73.8759 124.982 74.3376 125.019 74.79 125.029 75.0485 125.25 75.2425 125.509 75.2425 126.017 75.2332 126.561 75.2425 126.746 74.9839 127.448 74.0421 127.919 72.9249 128.39 71.8354 129.414 69.4716 128.694 67.5603 127.06 65.6305 126.598 65.0765 126.358 64.3287 126.174 63.5623 126.137 63.4238 126.174 63.2668 126.257 63.156L130.125 58.0407C130.208 57.9299 130.245 57.7822 130.208 57.6437L129.008 52.1406C128.971 52.0114 129.008 51.9006 129.082 51.7805 129.239 51.5497 129.341 51.2358 129.396 50.8572 129.488 50.2478 129.331 49.2783 129.073 48.7151 127.919 46.1113 126.33 43.8122 124.068 42.0486 121.954 40.3866 118.805 41.7531 117.374 42.5287 116.866 42.8057 116.275 42.8611 115.74 42.6765 115.731 42.6765 115.731 42.6672 115.731 42.6672 115.518 42.6026 115.371 42.4087 115.352 42.1963L115.287 41.4669C115.287 41.43 115.278 41.3746 115.26 41.3192 115.509 41.2084 115.74 41.0976 115.989 40.9868 119.369 39.5002 122.85 38.2352 126.441 37.2011 128.066 36.7394 129.719 36.3147 131.381 35.9361 130.966 36.2039 130.55 36.4717 130.153 36.7671 129.248 37.4135 127.734 37.8844 128.14 39.334 128.519 40.6913 129.987 40.3312 131.058 40.4789 133.486 40.8298 134.41 41.5777 134.4 44.0522 134.391 45.7419 133.782 47.4316 133.431 49.1306 133.274 49.9339 132.886 50.7372 132.942 51.5128 133.062 53.3317 133.172 55.2153 133.671 56.9512 134.16 58.6686 134.936 60.4045 135.961 61.8541 136.949 63.2483 137.9 63.0452 138.897 61.6602 139.165 61.3001 139.294 60.8107 139.59 60.4783 140.891 59.001 142.083 57.3852 143.578 56.1294 144.733 55.1784 146.339 54.7721 147.623 53.9411 149.488 52.7223 151.704 51.6143 150.642 48.7335 150.827 48.6227 150.91 48.5212 150.993 48.5212 151.353 48.4935 151.704 48.4842 152.073 48.4658 154.538 48.4288 155.415 47.4409 155.074 44.994 154.861 43.5352 155.129 42.3348 156.154 41.1714 157.576 39.5556 157.299 37.7182 155.637 36.9241 155.452 36.841 155.351 36.6563 155.351 36.4624 155.397 35.733 155.397 35.1421 155.295 34.6619 155.231 34.3572 155.489 34.0802 155.803 34.0987 159.257 34.3295 162.654 34.7635 165.978 35.3914 164.076 39.334 161.454 45.1879 161.242 48.0133 161.076 50.257 164.224 50.848 167.41 50.8941 170.586 50.9311 173.753 50.3863 176.781 49.3983 180.733 48.1057 184.814 46.97 188.979 46.0005 190.29 45.6958 191.619 45.3911 192.958 45.1233 201 49.7584 208.212 55.6678 214.324 62.5651 213.89 62.6297 213.456 62.6943 213.022 62.759 206.605 63.8023 200.4 65.2243 194.593 66.9786 188.434 68.8253 182.589 71.069 177.169 73.6174 177.132 73.6358 177.086 73.6543 177.049 73.682 170.558 76.7383 158.49 119.452 158.287 121.363 158.01 123.958 158.398 126.312 160.226 128.233 160.281 128.297 160.337 128.362 160.402 128.417 162.322 130.421 164.76 131.843 167.437 132.581 172.793 134.059 182.469 137.872 187.455 146.792 189.551 150.54 189.948 154.935 189.025 159.127 188.351 162.202 188.896 165.277 190.622 168.222 190.705 168.361 190.779 168.499 190.853 168.638 195.183 166.773 199.615 164.87 204.011 163.015 204.962 162.608 206.199 162.174 207.796 161.666 209.901 161.011 212.062 160.678 214.232 160.678 214.73 160.678 215.229 160.697 215.728 160.743 217.076 159.358 217.528 157.447 217.537 155.489 217.547 153.587 217.519 151.694 217.334 149.792 217.14 147.743 217.694 146.062 218.895 144.354 221.775 140.227 224.518 136.007 227.168 131.732 228.1 130.218 228.617 128.556 228.904 126.838 228.922 126.663 229.042 126.534 229.208 126.46L231.332 125.703C231.415 125.666 231.489 125.62 231.563 125.546L234.425 121.788C234.711 121.428 235.302 121.631 235.284 122.092 234.85 134.964 231.563 147.133 226.023 157.936 225.173 159.589 224.268 161.214 223.317 162.811 224.527 163.412 225.635 164.113 226.641 164.907 231.11 162.571 236.032 160.143 238.479 159.229 239.106 158.998 239.725 158.795 240.325 158.61 245.662 146.533 248.626 133.191 248.635 119.193 248.654 88.0676 234.185 60.3306 211.61 42.3256Z" fill="#002060" transform="matrix(1 0 0 1.00352 5489 334.018)"/><path d="M274.913 175.11C271.94 171.971 267.656 172.054 260.934 175.609 258.284 177.012 255.754 178.674 252.633 180.567 252.412 180.696 252.153 180.466 252.255 180.235 253.917 176.541 255.579 173.485 252.864 170.383 249.789 166.874 245.847 167.253 241.987 168.675 238.589 169.93 226.891 176.07 223.244 178.185 223.068 178.286 222.847 178.157 222.856 177.963 222.893 174.464 220.667 172.608 218.387 171.611 216.014 170.567 213.318 170.512 210.852 171.288 209.818 171.611 208.72 171.98 207.972 172.303 198.554 176.301 189.173 180.355 179.782 184.427L179.782 184.427C178.711 184.898 178.877 186.467 180.022 186.707 180.835 186.873 181.564 187.03 182.303 187.206 189.828 188.969 197.326 190.761 203.263 196.273 209.467 202.035 210.003 208.055 203.429 213.447 198.794 217.251 193.226 220.501 187.538 222.32 176.588 225.82 165.101 225.57 153.763 224.038 140.125 222.191 127.041 218.701 116.442 209.2 114.133 207.131 112.213 204.648 110.098 202.349 109.47 201.665 110.2 200.603 111.068 200.936 117.411 203.318 162.137 217.002 178.914 214.453 179.238 214.407 185.184 213.087 187.021 212.219 192.774 209.514 194.251 206.356 194.057 203.641 193.863 200.945 191.398 198.221 188.757 197.612 186.329 197.049 183.679 197.021 181.241 196.522 172.433 194.713 163.901 191.73 155.794 187.852 147.687 183.965 129.959 172.036 128.574 171.075 106.867 156.21 51.2173 156.865 27.2383 182.441 24.4129 185.858 20.8027 188.729 17.1001 191.148 12.3173 194.279 7.2297 196.956 2.09597 199.8 0.554 200.65-0.267767 202.413 0.0831 204.149 3.03777 218.775 7.85757 242.117 10.129 252.855 10.7107 255.588 13.8131 256.945 16.1953 255.486 16.4076 255.357 16.62 255.237 16.8231 255.108 24.9023 250.343 32.7599 245.127 41.1437 240.99 60.3029 231.535 79.5082 230.085 99.8585 239.023 113.995 245.237 129.285 248.949 144.252 253.086 153.772 255.717 163.846 255.773 173.347 253.021 182.663 250.325 243.455 214.472 262.827 198.24 266.289 195.34 270.361 192.404 273.131 188.785 277.905 182.571 277.97 178.351 274.913 175.11Z" fill="#002060" transform="matrix(1 0 0 1.00352 5489 334.018)"/></g></svg>