<?xml version="1.0" encoding="UTF-8" standalone="no"?><svg xmlns="http://www.w3.org/2000/svg" xmlns:xlink="http://www.w3.org/1999/xlink" contentScriptType="text/ecmascript" zoomAndPan="magnify" contentStyleType="text/css" version="1" width="496" stroke-miterlimit="2" clip-rule="evenodd" fill="#000000" preserveAspectRatio="xMidYMid meet" viewBox="7.0 7.0 496.0 496.0" height="496" stroke-linejoin="round" fill-rule="evenodd"><g id="change1_1"><path fill="#002060" d="M57.888,149.39L14.69,147.717C11.368,147.588 8.471,145.417 7.414,142.264C6.358,139.111 7.362,135.634 9.937,133.529L162.506,8.806C165.452,6.398 169.686,6.398 172.632,8.806L229.567,55.349L229.567,36.829C229.567,32.411 233.148,28.829 237.567,28.829L268.966,28.829C273.385,28.829 276.966,32.411 276.966,36.829L276.966,94.098L325.201,133.529C327.776,135.634 328.78,139.111 327.724,142.264C326.667,145.417 323.77,147.588 320.448,147.717L277.25,149.39L277.25,285.305C277.25,289.72 273.665,293.305 269.25,293.305C264.835,293.305 261.25,289.72 261.25,285.305L261.25,144.849L167.569,68.267L73.888,144.849L73.888,258.612C73.888,263.028 70.303,266.612 65.888,266.612C61.473,266.612 57.888,263.028 57.888,258.612L57.888,149.39ZM245.567,68.429L260.966,81.018L260.966,44.829L245.567,44.829L245.567,68.429ZM172.632,51.74L272.712,133.554L298.719,132.546L167.569,25.333L36.419,132.546L62.426,133.554L162.506,51.74C165.452,49.332 169.686,49.332 172.632,51.74ZM107.152,260.311L107.152,155.477C107.152,151.059 110.734,147.477 115.152,147.477L219.986,147.477C224.404,147.477 227.986,151.059 227.986,155.477L227.986,260.311C227.986,264.729 224.404,268.311 219.986,268.311L115.152,268.311C110.734,268.311 107.152,264.729 107.152,260.311ZM211.986,199.894L211.986,163.477L175.569,163.477L175.569,199.894L211.986,199.894ZM175.569,252.311L211.986,252.311L211.986,215.894L175.569,215.894L175.569,252.311ZM159.569,163.477L123.152,163.477L123.152,199.894L159.569,199.894L159.569,163.477ZM123.152,215.894L123.152,252.311L159.569,252.311L159.569,215.894L123.152,215.894ZM449.96,423.107C468.904,443.744 486.105,466.332 501.732,490.679C504.117,494.394 503.037,499.347 499.321,501.732C495.606,504.117 490.653,503.037 488.268,499.321C397.478,357.875 251.497,278.531 15.714,299.653C11.316,300.047 7.426,296.797 7.032,292.399C6.638,288.001 9.888,284.111 14.286,283.717C152.776,271.311 261.137,292.756 346.083,340.444C370.319,278.362 421.533,249.201 494.76,247.004C499.173,246.871 502.864,250.347 502.996,254.76C503.129,259.173 499.653,262.864 495.24,262.996C428.443,265.001 381.552,291.272 360.076,348.665C372.393,356.231 384.194,364.374 395.503,373.07C412.984,330.469 444.733,305.14 494.419,301.523C498.823,301.202 502.658,304.517 502.979,308.921C503.299,313.325 499.984,317.16 495.581,317.481C451.065,320.721 423.332,344.281 408.581,383.554C418.389,391.745 427.806,400.373 436.85,409.419C441.265,394.472 448.364,382.804 458.65,375.374C467.99,368.628 480.033,365.148 495.534,366.185C499.94,366.48 503.277,370.296 502.982,374.701C502.687,379.107 498.871,382.444 494.466,382.149C483.388,381.408 474.693,383.524 468.018,388.345C458.29,395.371 452.962,407.633 449.96,423.107ZM418.647,489.882C421.472,493.276 421.01,498.324 417.617,501.149C414.223,503.973 409.175,503.512 406.35,500.118C324.5,401.782 204.402,346.973 15.94,369.277C11.555,369.796 7.574,366.657 7.055,362.272C6.537,357.888 9.675,353.906 14.06,353.387C209.497,330.258 333.767,387.907 418.647,489.882ZM326.397,490.018C329.147,493.473 328.575,498.51 325.12,501.259C321.665,504.009 316.628,503.437 313.879,499.982C258.574,430.498 166.378,406.82 15.627,418.675C11.225,419.022 7.371,415.729 7.025,411.327C6.678,406.925 9.971,403.071 14.373,402.725C172.375,390.299 268.432,417.192 326.397,490.018ZM332.553,264.2L328.263,264.2C317.284,264.2 306.754,259.838 298.991,252.075C291.227,244.311 286.866,233.781 286.866,222.802L286.866,210.512C286.866,206.094 290.447,202.512 294.866,202.512L307.155,202.512C316.401,202.512 325.328,205.605 332.553,211.218L332.553,178.574C332.553,178.352 332.562,178.133 332.58,177.916C332.955,167.477 337.266,157.543 344.678,150.131C352.442,142.368 362.971,138.006 373.95,138.006L386.24,138.006C390.658,138.006 394.24,141.588 394.24,146.006L394.24,158.296C394.24,169.275 389.879,179.805 382.115,187.568C374.352,195.332 363.822,199.693 352.843,199.693L348.553,199.693L348.553,243.91L348.553,316.629C348.553,321.045 344.968,324.629 340.553,324.629C336.138,324.629 332.553,321.045 332.553,316.629L332.553,264.2ZM332.553,243.91C332.553,237.174 329.877,230.714 325.114,225.951C320.351,221.188 313.891,218.512 307.155,218.512C307.155,218.512 302.866,218.512 302.866,218.512L302.866,222.802C302.866,229.538 305.541,235.998 310.304,240.761C315.067,245.524 321.527,248.2 328.263,248.2C328.263,248.2 332.553,248.2 332.553,248.2L332.553,243.91ZM348.553,179.404L348.553,183.693L352.843,183.693C359.579,183.693 366.038,181.018 370.801,176.255C375.564,171.492 378.24,165.032 378.24,158.296C378.24,158.296 378.24,154.006 378.24,154.006L373.95,154.006C367.215,154.006 360.755,156.682 355.992,161.445C351.229,166.208 348.553,172.668 348.553,179.404ZM438.832,231.048L434.542,231.048C423.563,231.048 413.033,226.686 405.27,218.923C397.506,211.159 393.145,200.63 393.145,189.65L393.145,177.36C393.145,172.942 396.726,169.36 401.145,169.36L413.434,169.36C422.68,169.36 431.607,172.453 438.832,178.067L438.832,145.422C438.832,145.201 438.841,144.981 438.859,144.764C439.234,134.325 443.545,124.392 450.957,116.979C458.72,109.216 469.25,104.854 480.229,104.854L492.519,104.854C496.937,104.854 500.519,108.436 500.519,112.854L500.519,125.144C500.519,136.123 496.158,146.653 488.394,154.416C480.631,162.18 470.101,166.542 459.122,166.542L454.832,166.542L454.832,210.758L454.832,231.394C454.832,235.81 451.247,239.394 446.832,239.394C442.417,239.394 438.832,235.81 438.832,231.394L438.832,231.048ZM438.832,210.758C438.832,204.022 436.156,197.562 431.393,192.799C426.63,188.036 420.17,185.36 413.434,185.36C413.434,185.36 409.145,185.36 409.145,185.36L409.145,189.65C409.145,196.386 411.82,202.846 416.583,207.609C421.346,212.372 427.806,215.048 434.542,215.048C434.542,215.048 438.832,215.048 438.832,215.048L438.832,210.758ZM454.832,146.252L454.832,150.542L459.122,150.542C465.857,150.542 472.317,147.866 477.08,143.103C481.843,138.34 484.519,131.88 484.519,125.144C484.519,125.144 484.519,120.854 484.519,120.854L480.229,120.854C473.494,120.854 467.034,123.53 462.271,128.293C457.508,133.056 454.832,139.516 454.832,146.252Z"/></g></svg>