<svg xmlns="http://www.w3.org/2000/svg" viewBox="0 0 68 68" fill="none" aria-hidden="true">
  <g transform="translate(-982 -281.5)">
    <path d="M1025.13 325.98 1024.77 325.98 1018.7 324.581 1013.3 322.222 1008.56 319.156 1004.46 315.639 1001 311.925 998.171 308.269 995.962 304.926 994 300.905 994.011 300.481 1016.2 293.06 1017.51 293 1018.8 293.386 1019.91 294.151 1020.71 295.226 1020.75 295.283 1016.88 295.283 996.864 300.114 996.618 300.178 996.413 300.311 996.334 300.481 996.243 300.69 996.323 300.905 999.976 306.825 1002.63 310.274 1005.86 313.781 1009.68 317.109 1014.1 320.019 1019.12 322.275 1024.74 323.638 1030.3 323.638 1025.4 325.878 1025.24 325.952 1025.13 325.98Z" fill="#FFFFFF" fill-rule="evenodd"/>
    <path d="M1030.3 323.638 1024.74 323.638 1044.46 314.628 1041.3 313.944 1033.62 311.099 1029.51 308.707 1025.51 305.515 1021.82 301.409 1018.64 296.273 1018.36 295.701 1017.69 295.283 1020.75 295.283 1024.95 301.595 1029.98 306.202 1035.28 309.332 1040.32 311.27 1044.6 312.301 1048.74 312.784 1049.29 312.784 1049.75 313.168 1049.97 314.232 1049.7 314.775 1030.3 323.638Z" fill="#FFFFFF" fill-rule="evenodd"/>
    <path d="M1024.33 335.563 982 335.563 982 337.956 1024.33 337.956 1024.33 335.563Z" fill="#FFFFFF" fill-rule="evenodd"/>
    <path d="M1048.24 319.14 1046.1 319.119 1044.87 319.085 1024.63 328.107 1018.79 326.88 1013.82 324.924 1009.39 322.375 1005.49 319.416 1002.12 316.231 999.264 313 986.763 318.53 986.085 318.999 985.815 319.58 985.968 320.19 991.598 323.449 995.263 325.023 999.676 326.582 1004.82 328.003 1010.69 329.159 1017.27 329.927 1024.55 330.183 1048.24 319.14Z" fill="#FFFFFF" fill-rule="evenodd"/>
    <path d="M1048.95 324.954 1024.96 335.563 1024.96 337.956 1048.95 327.352 1048.95 324.954Z" fill="#FFFFFF" fill-rule="evenodd"/>
    <path d="M1048.95 324.114 1042.72 324.114 1024.82 332.459 1024.04 332.465 1017.8 332.253 1012.07 331.666 1006.85 330.778 1002.15 329.663 997.98 328.396 982 334.686 1024.4 334.686 1048.95 324.114Z" fill="#FFFFFF" fill-rule="evenodd"/>
  </g>
</svg>
