<svg width="48" height="48" viewBox="0 0 48 48" xmlns="http://www.w3.org/2000/svg" xml:space="preserve" overflow="hidden"><g transform="translate(5.3 5.3) scale(.78) translate(-403 -399)"><path d="M450.54 444.322 448.879 442.669C449.165 440.473 449.565 434.505 446.116 431.066 445.406 430.349 444.53 429.768 443.526 429.305 443.61 429.083 443.699 428.864 443.775 428.639L449.661 427.661C450.415 427.535 450.968 426.883 450.968 426.118L450.968 419.861C450.968 419.096 450.415 418.444 449.661 418.318L443.777 417.341C443.518 416.566 443.21 415.821 442.858 415.111L446.328 410.26C446.774 409.637 446.702 408.783 446.161 408.242L441.729 403.821C441.188 403.281 440.337 403.213 439.715 403.655L434.861 407.119C434.145 406.765 433.404 406.458 432.643 406.2L431.655 400.311C431.529 399.557 430.876 399.005 430.112 399.005L423.856 399.005C423.091 399.005 422.438 399.559 422.313 400.313L421.334 406.199C420.577 406.456 419.834 406.763 419.11 407.121L414.253 403.655C413.63 403.213 412.779 403.281 412.238 403.823L407.818 408.244C407.277 408.784 407.207 409.636 407.651 410.258L411.114 415.113C410.758 415.835 410.451 416.58 410.198 417.341L404.308 418.318C403.553 418.443 403 419.096 403 419.861L403 426.118C403 426.883 403.553 427.536 404.309 427.661L410.198 428.638C410.451 429.399 410.758 430.144 411.114 430.866L407.651 435.721C407.207 436.343 407.277 437.195 407.818 437.735L412.239 442.156C412.779 442.698 413.631 442.767 414.253 442.324L419.11 438.859C419.834 439.216 420.578 439.524 421.334 439.78L422.313 445.666C422.438 446.42 423.091 446.974 423.856 446.974L430.113 446.974C430.876 446.974 431.529 446.422 431.655 445.668L432.643 439.779C432.865 439.703 433.082 439.615 433.3 439.532 433.763 440.535 434.342 441.409 435.054 442.113 437.473 444.54 441.128 445.069 443.857 445.069 445.025 445.069 446.012 444.973 446.672 444.886L448.332 446.539C448.638 446.843 449.037 446.995 449.436 446.995 449.837 446.995 450.239 446.841 450.545 446.534 451.154 445.922 451.152 444.931 450.54 444.322ZM432.929 428.849C432.916 428.862 432.903 428.876 432.89 428.889 432.874 428.904 432.858 428.918 432.843 428.934 431.269 430.48 429.189 431.332 426.984 431.332 422.384 431.332 418.642 427.589 418.642 422.99 418.642 418.39 422.384 414.647 426.984 414.647 431.584 414.647 435.327 418.39 435.327 422.99 435.327 425.195 434.475 427.275 432.929 428.849ZM442.334 436.127C441.722 435.516 440.732 435.517 440.122 436.129 439.512 436.74 439.512 437.731 440.124 438.341L443.732 441.943C439.721 441.905 436.76 440.789 435.685 437.026 435.183 435.26 435.143 433.176 435.339 431.343 438.159 431.041 441.912 431.267 443.9 433.273 445.472 434.842 445.91 437.499 445.933 439.72L442.334 436.127Z" fill="#FFFFFF"/></g></svg>
