<svg width="255" height="236" xmlns="http://www.w3.org/2000/svg" xmlns:xlink="http://www.w3.org/1999/xlink" xml:space="preserve" overflow="hidden"><g transform="translate(-5739 -1954)"><path d="M180.136 182.354C182.534 182.521 184.981 183.645 187.551 186.227L249.076 248.071 224.023 248.071 180.136 182.354ZM122.751 133.753C124.995 133.653 127.616 134.41 130.23 135.784 140.691 141.267 145.476 145.009 147.839 149.619 150.605 154.967 151.107 163.654 151.107 178.983 151.071 179.785 151.158 180.525 151.29 181.211L130.246 193.369C123.237 197.413 118.556 199.174 110.928 199.541 113.646 178.88 114.869 162.965 115.89 142.539 116.18 136.489 118.977 133.927 122.751 133.753ZM162.295 47.1911 173.58 47.5775C173.426 47.8318 173.258 48.0797 173.107 48.3856 168.95 57.4909 163.367 62.4364 157.044 65.64 159.813 60.878 161.706 54.9216 162.295 47.1911ZM220.314 31.9813C218.704 31.9813 217.417 32.9214 217.417 34.0966L217.417 34.8178 147.085 36.6434C139.152 36.8462 139.471 46.457 147.085 46.7049L154.178 46.94C152.234 56.715 147.659 61.7474 142.24 65.8364 139.136 68.1835 132.465 71.6737 127.902 71.7735L106.121 72.2114C101.356 72.3112 97.6856 76.4195 98.3038 81.1493 102.383 111.785 101.575 150.102 95.2032 198.195 95.1163 198.681 95.1163 199.151 95.1163 199.621L90.9597 199.621C77.8265 199.621 74.4909 202.287 64.278 212.014L22.6538 251.693C19.9074 254.308 20.8765 261.301 25.7737 261.301L269.601 261.301C273.272 261.301 275.049 255.399 271.379 251.693L194.106 174.018C190.13 170.029 185.416 168.352 180.271 168.519 176.047 168.651 171.517 170.077 166.854 172.392 166.79 160.373 166.272 150.946 161.874 142.394 157.279 133.508 148.325 127.368 135.562 121.199L134.522 86.8996C158.016 84.3529 177.47 70.2184 183.471 54.1006 184.411 51.6182 184.157 49.49 183.355 47.8801L217.417 49.0006 217.417 49.7733C217.417 50.9292 218.704 51.8693 220.314 51.8693 221.924 51.8693 223.215 50.9292 223.215 49.7733L223.215 34.0966C223.215 32.9214 221.924 31.9813 220.314 31.9813Z" fill="#002060" transform="matrix(1 0 0 1.00156 5719.04 1928.18)"/><path d="M130.884 50.1629C127.635 58.4794 118.156 62.6038 109.724 59.4002 101.305 56.2159 97.1286 46.8724 100.384 38.5881 103.655 30.2716 113.111 26.1472 121.531 29.3314 129.96 32.535 134.136 41.8593 130.884 50.1629Z" fill="#002060" fill-rule="evenodd" transform="matrix(1 0 0 1.00156 5719.04 1928.18)"/></g></svg>